<svg xmlns="http://www.w3.org/2000/svg" viewBox="0 0 100 150"><defs><style>.cls-1{fill:none;}.cls-2{fill:#292331;}</style></defs><title>barbarianIcon</title><g id="Layer_2" data-name="Layer 2"><g id="Layer_1-2" data-name="Layer 1"><rect class="cls-1" width="100" height="150"/><rect class="cls-2" x="47.68" y="36.81" width="5.11" height="61.27"/><rect class="cls-2" x="46.9" y="91.93" width="6.66" height="45.62"/><path class="cls-2" d="M51.57,46.11a26.3,26.3,0,0,1,7.88,1.2,23.19,23.19,0,0,0-.37-8.52,26.33,26.33,0,0,1-7.51,1.09c-12,0-22.12-16.42-24.64-27.2-3.56,1.06-6.78,3.85-9.47,7.5l.79,2.1-2.3.12c-4.19,6.68-6.76,15.33-6.76,21.67,0,10.69,7.28,28.1,17.36,31.27C28.22,63.54,38.78,46.11,51.57,46.11Z"/><path class="cls-2" d="M48.43,46.11a26.3,26.3,0,0,0-7.88,1.2,23.19,23.19,0,0,1,.37-8.52,26.33,26.33,0,0,0,7.51,1.09c12,0,22.12-16.42,24.64-27.2,10.27,3.05,17.73,20.56,17.73,31.38s-7.28,28.1-17.36,31.27C71.78,63.54,61.22,46.11,48.43,46.11Z"/><path class="cls-2" d="M54.7,35.67c0,1.91-1.89,3.45-4.22,3.45s-4.22-1.54-4.22-3.45,4.22-10.44,4.22-10.44S54.7,33.77,54.7,35.67Z"/><path class="cls-2" d="M47.68,81.83s-1.8,1.71-2.27,0a2.66,2.66,0,0,0,1.49,2.49s-.42,3.12-1.5,3c2.28-.16,2.28-1.56,2.28-1.56l1.16-1.17h1.64L52,85.88s2.38-1.23,2.75,1.41c1-2-1.14-4.06-1.14-4.06S56,82.6,55.84,81a2.51,2.51,0,0,1-3-1.07h-2.3l-2.11,1.56Z"/></g></g></svg>