<svg xmlns="http://www.w3.org/2000/svg" viewBox="0 0 100 150"><defs><style>.cls-1{fill:none;}.cls-2{fill:#292331;}</style></defs><title>bardIcon</title><g id="Layer_2" data-name="Layer 2"><g id="Layer_1-2" data-name="Layer 1"><rect class="cls-1" width="100" height="150"/><g id="qDzW4o"><path class="cls-2" d="M22.94,21.33c0,2.61-.5,4.76-2.58,6.34A6.22,6.22,0,0,1,12,26.91a6.28,6.28,0,0,1,.75-8.63c3.6-3.13,8.17-3,12.63,0,4.77,3.26,6.68,7.92,7.1,13.53H66.68c1.12-3.15,1.79-6.23,3.25-8.9a13.37,13.37,0,0,1,11.26-6.9,7.55,7.55,0,0,1,7.12,4.05,6,6,0,0,1-.11,6.27,6.06,6.06,0,0,1-11.1-4A7.59,7.59,0,0,0,77,21.31c-1.79,1.46-2,3.29-2.2,5-1.26,9,1.41,17.11,5.54,24.88,3.28,6.17,6.84,12.19,10,18.43,2.75,5.47,4.39,11.25,3,17.51s-5,10.94-10.18,14.52-11,5.44-17.09,6.84a58.75,58.75,0,0,0-7.69,2.68,5.84,5.84,0,0,0-1.93,1.39c-2,2-1.88,3.18.43,4.81.71.5,1.4,1,2.09,1.54,2.43,1.85,2.6,3.48.42,5.55a17.26,17.26,0,0,1-3.51,2.62A11.34,11.34,0,0,0,50.1,134c-1.18-4.13-4.33-5.81-7.16-7.86-5.15-3.74-5.08-5.38.17-8.82,2.31-1.52,2.46-2.9.44-4.78-2.64-2.46-6.09-3.22-9.42-4-6.44-1.57-12.68-3.5-18-7.56C6.6,93.78,3.62,83.52,8.4,72.62c3-6.8,6.63-13.32,10.17-19.87,3-5.55,5.46-11.28,6.32-17.52a24.6,24.6,0,0,0-.85-12A11.68,11.68,0,0,0,22.94,21.33ZM56.23,79c-.8,2.53-.54,3.09,1.23,2.72l.34-1.9c2.46-.45,4.53.39,6.87,1.87-1.14.29-1.84.4-2.51.64-3.35,1.18-4.95,5-3.12,7.72a7.63,7.63,0,0,0,6.16,3.58C71.7,94,76.7,87,77.16,81.17a49.28,49.28,0,0,0-3.42-21.1c-3-8-6.4-15.79-6.28-24.55A2.06,2.06,0,0,0,66.14,34c-2.78-.15-5.57-.07-8.47-.07,0,.63-.09,1.08-.09,1.53q0,21.23,0,42.47a17.85,17.85,0,0,0,.22,2L56.23,79a14.46,14.46,0,0,1-.36-2.28q0-18.91,0-37.82,0-2.46,0-4.94h-3c0,.87,0,1.66,0,2.44q0,20.07,0,40.15C52.89,79.4,53.41,79.79,56.23,79ZM32.36,34a63.27,63.27,0,0,1-5.07,22.46,62.85,62.85,0,0,0-4.61,18.9c-.41,5.59.28,10.82,4.49,15,2.37,2.34,5.14,3.74,8.64,3.13,2.93-.52,5.61-3.16,5.75-5.81S39.92,83,36.8,82.07c-.4-.12-.79-.29-1.18-.44l-.06-.54a29.14,29.14,0,0,1,4.83-1.34c1.62-.18,1.92-.85,1.92-2.31,0-13.76,0-27.51,0-41.27,0-.71-.09-1.41-.15-2.16ZM44.2,34V79.43l2.32-.37V34Zm6.64,45.12V33.92l-2,.11v45.1Zm-2.4,2.74V79.39c-1.18-.42-1.63-.08-1.61,1.11S46.88,82.42,48.44,81.87Zm4.38-2.51c-2-.51-1.67.79-1.53,1.67.07.44.74.78,1.15,1.17l.38-.41Zm-9.59,2.83,1-.55-1-2.2c-.27.36-.78.74-.75,1.07A5.94,5.94,0,0,0,43.23,82.19Z"/></g></g></g></svg>