<svg xmlns="http://www.w3.org/2000/svg" viewBox="0 0 64.29 92.16"><defs><style>.cls-1{fill:#292331;}</style></defs><title>characterIcon</title><g id="Layer_2" data-name="Layer 2"><g id="Second_Draft" data-name="Second Draft"><polygon class="cls-1" points="53.74 74.16 11.74 74.16 11.74 80.16 7.74 87.02 7.74 92.16 57.74 92.16 57.74 87.02 53.74 80.16 53.74 74.16"/><path class="cls-1" d="M41.77,32.93A26.84,26.84,0,0,0,45.63,21a66.4,66.4,0,0,0,2.69-9.59l-2.71,3.34C44.6,5.09,38.94,0,32.08,0S19.48,5.16,18.54,15l-2.89-3.56a63.85,63.85,0,0,0,3,10.28A26.49,26.49,0,0,0,22.44,33C16.9,34.72,9.23,38.08,0,44.19c10.25,6.68,14.29,27,14.29,27H49.74s4.3-20.3,14.55-27C54.94,38,47.27,34.64,41.77,32.93Z"/></g></g></svg>