<svg xmlns="http://www.w3.org/2000/svg" viewBox="0 0 100 150"><defs><style>.cls-1{fill:none;}.cls-2{fill:#292331;}.cls-3{fill:#fff;}</style></defs><title>clericIcon</title><g id="Layer_2" data-name="Layer 2"><g id="Layer_1-2" data-name="Layer 1"><rect class="cls-1" width="100" height="150"/><path class="cls-2" d="M87.66,22.61s-20.87,6.22-37.66-9c-10.87,10.93-37.66,9-37.66,9S8.57,98.53,50,136.42C91.43,98.53,87.66,22.61,87.66,22.61Z"/><rect class="cls-3" x="48.28" y="46.71" width="3.78" height="45.37"/><rect class="cls-3" x="47.7" y="87.53" width="4.93" height="33.78"/><path class="cls-3" d="M53.29,36.56a2.88,2.88,0,0,1-3.12,2.56A2.88,2.88,0,0,1,47,36.56c0-1.41,3.12-7.73,3.12-7.73S53.29,35.15,53.29,36.56Z"/><path class="cls-3" d="M41.72,43.53a2.88,2.88,0,0,1,2.56,3.12,2.88,2.88,0,0,1-2.56,3.12c-1.41,0-7.73-3.12-7.73-3.12S40.31,43.53,41.72,43.53Z"/><path class="cls-3" d="M58.61,43.53a2.88,2.88,0,0,0-2.56,3.12,2.88,2.88,0,0,0,2.56,3.12c1.41,0,7.73-3.12,7.73-3.12S60,43.53,58.61,43.53Z"/><circle class="cls-3" cx="50.17" cy="47.1" r="11.03"/></g></g></svg>