<svg xmlns="http://www.w3.org/2000/svg" viewBox="0 0 33.49 40"><defs><style>.cls-1{fill:#393951;}</style></defs><title>D20 BLK NEW</title><g id="Layer_2" data-name="Layer 2"><g id="Second_Draft" data-name="Second Draft"><polygon class="cls-1" points="15.71 0 3.32 9.23 15.64 6.62 15.71 0"/><polygon class="cls-1" points="0.58 30.41 12.9 37.9 4.92 26.25 0.58 30.41"/><polygon class="cls-1" points="16.73 23.73 26.46 23.83 16.89 8.86 7 23.62 16.73 23.73"/><polygon class="cls-1" points="14.49 8.83 0.57 11.78 5.26 22.75 14.49 8.83"/><polygon class="cls-1" points="0.14 15.66 0 28.3 3.93 24.53 0.14 15.66"/><polygon class="cls-1" points="18.28 0.03 18.2 6.65 30.46 9.53 18.28 0.03"/><polygon class="cls-1" points="20.24 37.98 32.72 30.77 28.47 26.51 20.24 37.98"/><polygon class="cls-1" points="16.71 25.65 6.77 25.54 16.55 40 26.64 25.76 16.71 25.65"/><polygon class="cls-1" points="28.21 23 33.15 12.14 19.3 8.89 28.21 23"/><polygon class="cls-1" points="29.5 24.82 33.35 28.68 33.49 16.03 29.5 24.82"/></g></g></svg>