<svg xmlns="http://www.w3.org/2000/svg" viewBox="0 0 38.01 45.39"><defs><style>.cls-1{fill:#292331;}</style></defs><title>D20BLK</title><g id="Layer_2" data-name="Layer 2"><g id="Second_Draft" data-name="Second Draft"><polygon class="cls-1" points="17.83 0 3.77 10.47 17.75 7.52 17.83 0"/><polygon class="cls-1" points="0.66 34.51 14.64 43.01 5.59 29.79 0.66 34.51"/><polygon class="cls-1" points="18.98 26.92 30.03 27.05 19.17 10.06 7.94 26.8 18.98 26.92"/><polygon class="cls-1" points="16.44 10.03 0.65 13.37 5.97 25.82 16.44 10.03"/><polygon class="cls-1" points="0.16 17.77 0 32.12 4.46 27.84 0.16 17.77"/><polygon class="cls-1" points="20.74 0.03 20.66 7.55 34.56 10.82 20.74 0.03"/><polygon class="cls-1" points="22.97 43.1 37.13 34.92 32.31 30.08 22.97 43.1"/><polygon class="cls-1" points="18.96 29.11 7.69 28.98 18.78 45.39 30.23 29.23 18.96 29.11"/><polygon class="cls-1" points="32.02 26.11 37.62 13.78 21.9 10.09 32.02 26.11"/><polygon class="cls-1" points="33.48 28.16 37.85 32.54 38.01 18.2 33.48 28.16"/></g></g></svg>