<svg xmlns="http://www.w3.org/2000/svg" viewBox="0 0 100 100"><defs><style>.cls-1{fill:#292331;}</style></defs><title>dgLogo</title><g id="Layer_2" data-name="Layer 2"><g id="Layer_1-2" data-name="Layer 1"><path class="cls-1" d="M50,0a50,50,0,1,0,50,50A50.06,50.06,0,0,0,50,0ZM38.22,9.65V17A35.09,35.09,0,0,0,15,48.09H8A42.12,42.12,0,0,1,38.22,9.65Zm0,16V74.36a27.05,27.05,0,0,1,0-48.71Zm15.6-2.43V91.86C52.56,92,51.29,92,50,92a42.1,42.1,0,0,1-41.6-36h7.1A35.1,35.1,0,0,0,46.18,84.81V8.14C47.44,8,48.71,8,50,8A42.09,42.09,0,0,1,92,48.09H68.92v8h7.45a27.17,27.17,0,0,1-14.59,18.3V25.64A27.22,27.22,0,0,1,75.11,39.93h8.43A35.11,35.11,0,0,0,53.82,15.19Zm8,67.14V83A35.14,35.14,0,0,0,84.5,56.06h7.1A42.16,42.16,0,0,1,61.78,90.35Z"/></g></g></svg>