<svg xmlns="http://www.w3.org/2000/svg" viewBox="0 0 50 50"><defs><style>.cls-1{fill:#041e41;}</style></defs><title>dgLogo</title><g id="Layer_2" data-name="Layer 2"><g id="Layer_1-2" data-name="Layer 1"><path class="cls-1" d="M25,0A25,25,0,1,0,50,25,25,25,0,0,0,25,0ZM19.11,4.82V8.51A17.55,17.55,0,0,0,7.52,24H4A21.06,21.06,0,0,1,19.11,4.82Zm0,8V37.18a13.53,13.53,0,0,1,0-24.36Zm7.8-1.22V45.93C26.28,46,25.64,46,25,46A21,21,0,0,1,4.2,28H7.75A17.55,17.55,0,0,0,23.09,42.41V4.07C23.72,4,24.36,4,25,4A21,21,0,0,1,46,24H34.46v4h3.73a13.58,13.58,0,0,1-7.3,9.15V12.82A13.61,13.61,0,0,1,37.56,20h4.22A17.56,17.56,0,0,0,26.91,7.59Zm4,33.57V41.49A17.57,17.57,0,0,0,42.25,28H45.8A21.08,21.08,0,0,1,30.89,45.18Z"/></g></g></svg>