<svg xmlns="http://www.w3.org/2000/svg" viewBox="0 0 39.14 43.84"><defs><style>.cls-1{fill:gray;}</style></defs><title>dieD12</title><g id="Layer_2" data-name="Layer 2"><g id="Second_Draft" data-name="Second Draft"><polygon class="cls-1" points="19.12 32 13.31 31.93 7.6 38.04 18.99 43.84 30.59 38.3 25.11 32.06 19.12 32"/><polygon class="cls-1" points="8.52 18.4 0.15 15.43 0 28.7 5.96 36.8 11.92 30.41 8.52 18.4"/><polygon class="cls-1" points="18.69 9.15 18.79 0 6.2 4.99 0.71 13.45 9.18 16.45 18.69 9.15"/><polygon class="cls-1" points="30.71 18.65 27.04 30.58 32.85 37.1 38.99 29.14 39.14 15.87 30.71 18.65"/><polygon class="cls-1" points="38.63 13.88 33.32 5.3 20.85 0.02 20.74 9.17 30.09 16.69 38.63 13.88"/><polygon class="cls-1" points="13.9 29.89 19.14 29.95 24.4 30 28.16 18.2 19.55 11.37 10.4 18 13.9 29.89"/></g></g></svg>