<svg xmlns="http://www.w3.org/2000/svg" viewBox="0 0 32.57 30.85"><defs><style>.cls-1{fill:#a9a9a9;}</style></defs><title>diePercentage</title><g id="Layer_2" data-name="Layer 2"><g id="Second_Draft" data-name="Second Draft"><path class="cls-1" d="M0,7.7Q0,3.78,1.72,1.89A6,6,0,0,1,6.39,0a6.14,6.14,0,0,1,4.77,1.88q1.72,1.88,1.72,5.82t-1.72,5.81a6,6,0,0,1-4.67,1.89,6.14,6.14,0,0,1-4.77-1.88Q0,11.64,0,7.7Zm4.36,0A7.55,7.55,0,0,0,5,11.49a1.59,1.59,0,0,0,1.37.72,1.6,1.6,0,0,0,1.39-.72,7.74,7.74,0,0,0,.64-3.82,7.61,7.61,0,0,0-.64-3.8,1.59,1.59,0,0,0-1.39-.74A1.59,1.59,0,0,0,5,3.84,7.56,7.56,0,0,0,4.36,7.66Zm6.29,23.13H6.51L22.06,0h4Zm9-7.66q0-3.92,1.72-5.81a6,6,0,0,1,4.71-1.89,6.07,6.07,0,0,1,4.73,1.89q1.72,1.89,1.72,5.81T30.84,29a6,6,0,0,1-4.67,1.89A6.12,6.12,0,0,1,21.41,29Q19.69,27.07,19.69,23.13Zm4.36,0a7.41,7.41,0,0,0,.66,3.8,1.66,1.66,0,0,0,2.75,0,7.54,7.54,0,0,0,.66-3.82,7.76,7.76,0,0,0-.64-3.82,1.6,1.6,0,0,0-1.39-.72,1.55,1.55,0,0,0-1.37.72A7.54,7.54,0,0,0,24,23.11Z"/></g></g></svg>