<svg xmlns="http://www.w3.org/2000/svg" viewBox="0 0 100 150"><defs><style>.cls-1{fill:none;}.cls-2{fill:#292331;}</style></defs><title>druidIcon</title><g id="Layer_2" data-name="Layer 2"><g id="Layer_1-2" data-name="Layer 1"><rect class="cls-1" width="100" height="150"/><g id="AZgUYe"><path class="cls-2" d="M63.44,133.26c-3,.16-5.47-1.28-8-2.46a55.52,55.52,0,0,1-5.67-3.06,8.51,8.51,0,0,0-6.32-1,35.9,35.9,0,0,1-6.21,1,16,16,0,0,1-5.77-1,14.85,14.85,0,0,1-6.82-5.46,10.62,10.62,0,0,1-1.43-8.91c1-4.37,2.48-8.4,6.53-11a29.46,29.46,0,0,0,3.4-2.82,42.21,42.21,0,0,0,7.54-9.46c2-3.13,4.83-5.21,8.68-4.87a12.45,12.45,0,0,1,10.29,6.42A25.78,25.78,0,0,1,62,96.05a18.22,18.22,0,0,0,4.77,7.6c2,2,3.83,4.14,5.72,6.23a12.16,12.16,0,0,1,2.87,11c-1.07,5.59-3.74,9.88-9.3,12a3.63,3.63,0,0,1-.84.26C64.63,133.21,64,133.22,63.44,133.26Z"/><path class="cls-2" d="M62.95,70.15c-5.62.1-9.86-4.51-9.22-10.56A23.8,23.8,0,0,1,57.24,49c1.88-2.95,2.21-6.38,2.92-9.71C61.3,34,63.9,33.52,67.95,36c2.52,1.55,3.94,4.13,5,6.82,2.43,5.95,3.28,12,.81,18.16a15.61,15.61,0,0,1-5.57,7.37A8,8,0,0,1,62.95,70.15Z"/><path class="cls-2" d="M24.71,54c.22-6.28,2-11.41,5.83-15.79.19-.22.41-.43.62-.64C33.73,35,36.5,34.95,38.41,39a18,18,0,0,1,1.33,5.09,10,10,0,0,0,2.59,5c1.16,1.44,2.43,2.81,3.45,4.35,1.69,2.52,1.31,5.34.66,8.07A13.19,13.19,0,0,1,42,68.95a6,6,0,0,1-7,.74c-5.57-2.57-8.47-7.23-9.91-13A23.9,23.9,0,0,1,24.71,54Z"/><path class="cls-2" d="M93.17,85.49c-.15,4-.44,7.87-2.42,11.38a15.17,15.17,0,0,1-3,4c-3.74,3.27-7.27,2.86-11.12,0-6-4.44-7.08-12.55-2.47-18.75,1-1.34,2.32-2.42,3.43-3.68,1.69-1.92,3.26-3.93,5-5.82a9.86,9.86,0,0,1,3.18-2.73c1.92-.76,3.23.2,4.49,2.41a21.86,21.86,0,0,1,2.51,8.4C92.9,82.3,93,83.9,93.17,85.49Z"/><path class="cls-2" d="M8.12,75.83a18.24,18.24,0,0,1,2.56-9.64c2-3.52,5.18-2.74,6.86.22a7.28,7.28,0,0,1,.77,1.73c.64,2.48,2.44,3.84,4.58,4.89,3.58,1.75,6.21,4.32,7.13,8.32,1.39,6-1.9,10.8-8.32,11.28-3.8.28-6.52-1.63-8.79-4.33A19.37,19.37,0,0,1,8.12,75.83Z"/><path class="cls-2" d="M61.74,16.73c2.84,2.74,4.83,5.72,5.45,9.47a3.37,3.37,0,0,1-1.5,3.49c-1.24.5-3.27.19-3.78-.88a7.55,7.55,0,0,1-.63-3.25c0-2.68.22-5.36.36-8C61.65,17.32,61.69,17.13,61.74,16.73Z"/><path class="cls-2" d="M38.15,18c.06.09.11.12.1.15-.86,2.92-.06,5.82,0,8.74a4.92,4.92,0,0,1-1.08,2.83,2.59,2.59,0,0,1-2.91.69,2.47,2.47,0,0,1-1.86-2.32A10.55,10.55,0,0,1,33,24.19a16.44,16.44,0,0,1,4.65-5.9A2.19,2.19,0,0,1,38.15,18Z"/><path class="cls-2" d="M10.76,47.53c.69,2.19,1.34,4.22,2,6.26a5.45,5.45,0,0,1-.6,4.37,1.82,1.82,0,0,1-2.33,1c-2.47-.69-3.35-2-2.82-4.5A15.7,15.7,0,0,1,10.76,47.53Z"/><path class="cls-2" d="M86.18,54.17c3,2.43,4.47,6.61,3.47,9.78-.63,2-1.65,2.75-3.24,2.41-1.09-.23-2-2.11-1.79-3.67.18-1.12.43-2.22.69-3.32.19-.86.49-1.69.64-2.55S86.1,55.16,86.18,54.17Z"/></g></g></g></svg>