<svg xmlns="http://www.w3.org/2000/svg" xmlns:xlink="http://www.w3.org/1999/xlink" viewBox="0 0 150.37 300.32"><defs><style>.cls-1{fill:none;}.cls-2{fill:#011b34;}.cls-3{clip-path:url(#clip-path);}.cls-4{fill:#14446a;}.cls-5{fill:#fff;}.cls-6{clip-path:url(#clip-path-2);}</style><clipPath id="clip-path"><path class="cls-1" d="M121.4,279.61l-1.11,3.72H117l1.28-1.1-6.39-8s0,0-1.79-.23c.26-1.53-1-1.52-1-1.52l1.79-1.78-3.07-10.22,2.3-1.79-2.3-5,2-.77-3.32-6.57,2.3-.26-3.58-7.09,1.79-1-3.32-7.09-1.53-1.53,1.53-1.25,1.79,1.5,1-1.5,1.53,3s2,.26,2.81-3c.51,1.56.77,2.53.77,2.53s3.32.77,3.83-2.52c.51,1.05,2.81,2.28,3.83,2s-.26-4.59-.26-4.59a3.21,3.21,0,0,0,2.3-4.06c.26-4.35-1.53-3.11-4.09-4.9,1-4.41-2.61-15.17-2.61-15.17h-3s.51-2.51-.77-3.28c0-1-1.53-2.3-1.53-2.3l3.32-.87-2.56-5.68,2.81-1.3s-2.3-6.4-3.58-9.47c2.56-2,7.92-.77,7.92-.77l-6.9-21.22-4.35-2-3.32-12.27-6.39,8.43-2.3-1-1.79.77S94,146.46,90.45,147a2.26,2.26,0,0,0-1.53-2.56s0-1-1.79-2c.26-1,.25-2.81-3-3.83,2.4-2.3-.3-3.32-.3-3.32a5.86,5.86,0,0,0-.08-3.83c.51-1.28-2.07-3.32-2.07-3.32s.72-3.07-3.37-3.07c-1.28-4.35-5.77-1.91-5.77-1.91s-4.49-2.44-5.77,1.91c-4.09,0-3.37,3.07-3.37,3.07s-2.58,2-2.07,3.32a5.86,5.86,0,0,0-.08,3.83s-2.7,1-.3,3.32c-3.22,1-3.22,2.81-3,3.83-1.79,1-1.79,2-1.79,2A2.26,2.26,0,0,0,54.68,147c-3.58-.51-1.79,3.32-1.79,3.32l-1.79-.77-2.3,1-6.39-8.43-3.32,12.27-4.35,2-6.9,21.21s5.37-1.28,7.92.77c-1.28,3.07-3.58,9.46-3.58,9.46L35,189.14l-2.56,5.62,3.32.77S34.23,197,34.23,198c-1.28.77-.77,3.28-.77,3.28h-3s-3.65,10.77-2.61,15.17c-2.56,1.79-4.35.76-4.09,5.11a3.08,3.08,0,0,0,2.3,4s-1.28,4.28-.26,4.54,3.32-1,3.83-2c.51,3.29,3.83,2.51,3.83,2.51s.26-1,.77-2.54c.77,3.29,2.81,3,2.81,3l1.53-3,1,1.5L41.39,228l1.53,1.25-1.53,1.53-3.32,7.09,1.79,1L36.27,246l2.3.26-3.32,6.57,2,.77-2.3,5,2.3,1.79-3.07,10.22L36,272.44s-1.28,0-1,1.53l-1.79.26-6.39,8,1.28,1.1H24.84l-1.21-3.72L22,286.75v10.39l5.11,3.18h17l3-4.9a7.67,7.67,0,0,1,5-3.57A31,31,0,0,0,51.61,281l1.79-.32,1.53-4.89-2.3-1.29,1-2.82,3.83.51.77-5.63L56,265.28l.77-2.3,2.81.08.51-2.73h8.11l1.41-1.6,3,0,3,0L77,260.32h8.11l.51,2.73,2.81,0,.77,2.24-2.3,1.25.77,5.61,3.83-.52,1,2.81-2.3,1.28,1.53,4.86,1.79.27A30.3,30.3,0,0,0,93,291.66a7.62,7.62,0,0,1,5,3.76l3,4.9h17l4.91-3.18V286.75Z"/></clipPath><clipPath id="clip-path-2"><path class="cls-1" d="M127.12,226.32h1.68a2.17,2.17,0,0,0,2-1.39,3.76,3.76,0,0,0,3.34,2c2.09,0,9.81-3.81,9.81-3.81s-7.72-3.8-9.81-3.8c-1.45,0-2.7,1.49-3.34,2.68-.31-.78-1.07-.65-2-.65h-1.72c2.27-17,14.8-15.76,14.8-15.76-9.42-11.77-16.48-11.94-19.54-11.94s-10.15-.22-19.57,11.55c0,0,13.12-.85,14.92,16.15H17.25c-.63,0-1.65-1.58-2.82-1.58a3.4,3.4,0,0,0-1.58.32,3.8,3.8,0,0,0-2.21-.75c-2.09,0-9.81,3.78-9.81,3.78s7.72,3.78,9.81,3.78a3.77,3.77,0,0,0,2.21-.72,3.55,3.55,0,0,0,1.58.5,3.07,3.07,0,0,0,2.82-1.34H117.66c-1.92,16-14.89,15.83-14.89,15.83,9.42,11.77,16.51,11.56,19.57,11.56s10.12.19,19.54-11.58C141.89,241.13,129.5,241.32,127.12,226.32Z"/></clipPath></defs><title>dwarfIcon</title><g id="Layer_2" data-name="Layer 2"><g id="Layer_1-2" data-name="Layer 1"><rect class="cls-1" x="0.37" width="150" height="300"/><path class="cls-2" d="M121.4,279.61l-1.11,3.72H117l1.28-1.1-6.39-8s0,0-1.79-.23c.26-1.53-1-1.52-1-1.52l1.79-1.78-3.07-10.22,2.3-1.79-2.3-5,2-.77-3.32-6.57,2.3-.26-3.58-7.09,1.79-1-3.32-7.09-1.53-1.53,1.53-1.25,1.79,1.5,1-1.5,1.53,3s2,.26,2.81-3c.51,1.56.77,2.53.77,2.53s3.32.77,3.83-2.52c.51,1.05,2.81,2.28,3.83,2s-.26-4.59-.26-4.59a3.21,3.21,0,0,0,2.3-4.06c.26-4.35-1.53-3.11-4.09-4.9,1-4.41-2.61-15.17-2.61-15.17h-3s.51-2.51-.77-3.28c0-1-1.53-2.3-1.53-2.3l3.32-.87-2.56-5.68,2.81-1.3s-2.3-6.4-3.58-9.47c2.56-2,7.92-.77,7.92-.77l-6.9-21.22-4.35-2-3.32-12.27-6.39,8.43-2.3-1-1.79.77S94,146.46,90.45,147a2.26,2.26,0,0,0-1.53-2.56s0-1-1.79-2c.26-1,.25-2.81-3-3.83,2.4-2.3-.3-3.32-.3-3.32a5.86,5.86,0,0,0-.08-3.83c.51-1.28-2.07-3.32-2.07-3.32s.72-3.07-3.37-3.07c-1.28-4.35-5.77-1.91-5.77-1.91s-4.49-2.44-5.77,1.91c-4.09,0-3.37,3.07-3.37,3.07s-2.58,2-2.07,3.32a5.86,5.86,0,0,0-.08,3.83s-2.7,1-.3,3.32c-3.22,1-3.22,2.81-3,3.83-1.79,1-1.79,2-1.79,2A2.26,2.26,0,0,0,54.68,147c-3.58-.51-1.79,3.32-1.79,3.32l-1.79-.77-2.3,1-6.39-8.43-3.32,12.27-4.35,2-6.9,21.21s5.37-1.28,7.92.77c-1.28,3.07-3.58,9.46-3.58,9.46L35,189.14l-2.56,5.62,3.32.77S34.23,197,34.23,198c-1.28.77-.77,3.28-.77,3.28h-3s-3.65,10.77-2.61,15.17c-2.56,1.79-4.35.76-4.09,5.11a3.08,3.08,0,0,0,2.3,4s-1.28,4.28-.26,4.54,3.32-1,3.83-2c.51,3.29,3.83,2.51,3.83,2.51s.26-1,.77-2.54c.77,3.29,2.81,3,2.81,3l1.53-3,1,1.5L41.39,228l1.53,1.25-1.53,1.53-3.32,7.09,1.79,1L36.27,246l2.3.26-3.32,6.57,2,.77-2.3,5,2.3,1.79-3.07,10.22L36,272.44s-1.28,0-1,1.53l-1.79.26-6.39,8,1.28,1.1H24.84l-1.21-3.72L22,286.75v10.39l5.11,3.18h17l3-4.9a7.67,7.67,0,0,1,5-3.57A31,31,0,0,0,51.61,281l1.79-.32,1.53-4.89-2.3-1.29,1-2.82,3.83.51.77-5.63L56,265.28l.77-2.3,2.81.08.51-2.73h8.11l1.41-1.6,3,0,3,0L77,260.32h8.11l.51,2.73,2.81,0,.77,2.24-2.3,1.25.77,5.61,3.83-.52,1,2.81-2.3,1.28,1.53,4.86,1.79.27A30.3,30.3,0,0,0,93,291.66a7.62,7.62,0,0,1,5,3.76l3,4.9h17l4.91-3.18V286.75Z"/><path class="cls-2" d="M141.3,205.07c-9.42-11.77-16.48-11.69-19.54-11.69s-10.15,0-19.57,11.74c0,0,14.12-.79,15.07,18.21h8.93C127.15,204.32,141.3,205.07,141.3,205.07Z"/><path class="cls-2" d="M141.3,241.23c-9.42,11.77-16.48,11.52-19.54,11.52s-10.15.3-19.57-11.47c0,0,14.12,0,15.07-18h8.93C127.15,241.32,141.3,241.23,141.3,241.23Z"/><rect class="cls-2" x="124.07" y="219.95" width="6.25" height="6.25" rx="2.12" ry="2.12"/><path class="cls-2" d="M143.33,223.08s-7.72,3.79-9.81,3.79a3.79,3.79,0,0,1,0-7.58C135.61,219.29,143.33,223.08,143.33,223.08Z"/><rect class="cls-2" x="14.93" y="221.07" width="106.68" height="4.01"/><path class="cls-2" d="M.83,223.08s7.72,3.79,9.81,3.79a3.79,3.79,0,1,0,0-7.58C8.55,219.29.83,223.08.83,223.08Z"/><circle class="cls-2" cx="14.43" cy="223.08" r="3.46"/><g class="cls-3"><path class="cls-4" d="M75.76,122.4c-.28,0-3.23.77-3.2,2.08-1.09-1-4.63-.84-4.44,1.4L66.79,125s-3.15,2.2-2.12,3.69c-1.25-.62-3.45,3.17-1.77,3.82-1.12.47-1.68,2.42-.61,3.17a3.39,3.39,0,0,0-.14,3.08,4.38,4.38,0,0,1-.88-3.53l-4.89-3.93-.56-10.63,10.72-6.8,8.76,2.05Z"/><path class="cls-4" d="M61.27,135.21s-3.25.88-.3,3.32A7.17,7.17,0,0,1,61.27,135.21Z"/><path class="cls-4" d="M61,138.53s0,2.44.72,2.91L60,140a3.19,3.19,0,0,0-2,2.32c-3.21-2.79-2.19-4.19-2.19-4.19Z"/><path class="cls-4" d="M58,142.37a2.4,2.4,0,0,0,0,3.36c-1.82-.47-3.25.47-2.35,1.77-1.62.19-3.36.26-2.77,2.79l-1.83-2.14L50.31,144l2.42-2.89Z"/><polygon class="cls-4" points="48.7 150.8 51.43 152.32 55.72 152.32 52.89 150.47 49.76 147.13 48.7 150.8"/><path class="cls-4" d="M42.41,142.11l3.15,15.64s-4.84,1.73-6.47-3.38a16.87,16.87,0,0,1,0-9.77Z"/><path class="cls-4" d="M39.09,154.38l.51,4.12-3.82-1.4,3.82,2.33L29.15,176.49a8.86,8.86,0,0,1,9.2,3.36l-2.6-1.44-5.49.32-2.42.37-3.17-.28L21.14,166l6.15-9.23L32.6,152Z"/><polygon class="cls-4" points="35.76 178.41 38.36 181.25 36.24 179.85 32.42 187.22 29.9 182.81 35.76 178.41"/><polygon class="cls-4" points="35 189.14 37.92 190.47 35 190.85 32.44 194.76 29.16 191.31 35 189.14"/><path class="cls-4" d="M33.46,200.48l3.89.43-6.15.65s-3.28,9.52-3.37,14.51c-9.22-5.84-8.47-8.55-8.47-8.55l4.1-10.25,1.68-.47Z"/><path class="cls-4" d="M27.84,216.08s1,1.91-.58,1.91-2.88,4.42-1.4,5.54c-2.18-1.4-2.1-2.14-2.1-2.14l-3-6.28,2-1.4Z"/></g><path class="cls-4" d="M62.25,142.75s-2,.93,0,2.89a4.33,4.33,0,0,0,.65,4.75c-.47-2.33-.75-4.38.56-4.75A4,4,0,0,1,62.25,142.75Z"/><path class="cls-5" d="M75.43,138.82a5.72,5.72,0,0,1,4.18-1C78.82,138.92,77.84,139.33,75.43,138.82Z"/><path class="cls-5" d="M69.81,138.82a5.72,5.72,0,0,0-4.18-1C66.41,138.92,67.39,139.33,69.81,138.82Z"/><g class="cls-6"><polygon class="cls-4" points="23.59 221.07 21.08 222.27 17.59 221.67 17.25 221.07 18.94 219.29 23.59 221.07"/><path class="cls-4" d="M.83,223.08s11.17,1.23,11.94,0,.86-2.78-2.13-3.79-9,.33-9,.33L0,220.78Z"/><path class="cls-4" d="M12.85,220a5.17,5.17,0,0,1,1.58,3.08c1.7-.87,1.66-2.8.9-3.34a10.86,10.86,0,0,1-1.87-2.88l-1.5.3Z"/></g><polygon class="cls-4" points="41.39 230.8 43.69 232 42.92 229.27 41.39 230.8"/><polygon class="cls-4" points="41.39 230.8 43.26 232.6 41.39 232.22 38.06 237.89 41.39 230.8"/><polygon class="cls-4" points="39.76 239.29 42.54 241.32 39.68 241.32 36.27 246.55 39.76 239.29"/><polygon class="cls-4" points="38.52 246.13 41.81 247.32 38.47 247.32 35.25 252.46 38.52 246.13"/><polygon class="cls-4" points="37.36 253.26 40.35 254.32 37.67 254.32 35 258.41 37.36 253.26"/><polygon class="cls-4" points="37.3 260.43 40.35 262.25 37.67 262.04 34.23 270.65 37.3 260.43"/><polygon class="cls-4" points="35 273.97 38.53 276.54 34.23 275.03 35.55 276.54 26.82 282.32 33.21 274.23 35 273.97"/><polygon class="cls-4" points="23.66 279.92 24.38 284.4 22.5 286.62 29.35 288.61 23.12 287.54 21.96 297.14 21.96 286.71 23.66 279.92"/><polygon class="cls-4" points="24.84 283.32 25.31 284.81 30 285.79 28.1 283.32 24.84 283.32"/></g></g></svg>