<svg xmlns="http://www.w3.org/2000/svg" viewBox="0 0 150 300"><defs><style>.cls-1{fill:none;}.cls-2{fill:#011b34;}.cls-3{fill:#14446a;}.cls-4{fill:#fff;}</style></defs><title>elfIcon</title><g id="Layer_2" data-name="Layer 2"><g id="Layer_1-2" data-name="Layer 1"><rect class="cls-1" width="150" height="300"/><path class="cls-2" d="M62.05,117.56l-8.92,2.63.41,1.67,2.16-.49c1.53-2.11,3.12-2,3.55-1.93l.11,0S60.54,118.59,62.05,117.56Z"/><path class="cls-3" d="M55.12,122.28c.11-.19.22-.37.32-.54C58.36,118.15,66,128,66,128l-6.67-8.51-.11,0c-.43-.07-2-.18-3.55,1.93l-2.16.49-.41-1.67,8.92-2.63c-1.51,1-2.7,1.9-2.7,1.9a20.46,20.46,0,0,1,2.39,2.26c-.75-1.61,3.31-5.9,4.14-6.75l-.31.27-.42.1-1.72.42-.43.11-2.15.53-.43.11-1.72.42-.86.21-1.72.42-.43.11L54,118.1l-.86.21-2.15.53L52,123.13l.81-.2.62-.15Z"/><path class="cls-2" d="M131.76,292.8s-5.66-2.22-7.63-4.43-7.63-10.34-9.6-11.57c-3.45-11.33-6.89-30.78-4.43-40.38l-4.19,3.94s-1.38-6.65-1.68-8.86a14.49,14.49,0,0,1,.2-4.43l5.66.74c-3.69-5.17-12.56-36.93-12.56-36.93s0-7.39-2-9.11a1.77,1.77,0,0,0-.25-3s1.23-2.22.49-2.71-1-7.14.49-8.62,2,.25,2,.25l2.46,4.92s1.34-1.2,3.25-2.77c.45,2.51-.74,4.22,3.45,10.65A27.25,27.25,0,0,1,112,194.7s-3.41,2.73-3.24,3.93-1.57,1.73-1.57,1.73-1.68,1.86,1.57,2.37c-.68,1.71-1.88,2.9-1.37,3.59s5.46,1.71,7.34,0a1.59,1.59,0,0,0,2-1.37,2,2,0,0,0,2.22-1,20,20,0,0,0,1-11.44c-.07-.31-.15-.68-.25-1.09a1,1,0,0,1,.67-.32c-1.89-8.13-5.35-24.83-3.85-29.95a49.84,49.84,0,0,0-3,7.18,13.5,13.5,0,0,0-1.91-4,13.69,13.69,0,0,1,3.09-1.45c-3.69-6.16-6.16-11.08-6.16-11.08s.25-2.22-1.72-2.71c7.14,1,10.83-2,10.83-2s-7.39-.49-8.86-3-2-7.39-2.22-10.59-2.22-7.88-6.89-9.36-2-.74-4.68-1.48c-2-3.94-4.43-3.2-4.43-3.2s-.15-.3-.44-.76A10.31,10.31,0,0,1,94,117.9c7.22-.34,5.9,5.62,5.9,5.62s3-7.38-6.1-6.74a25.18,25.18,0,0,1-2.85,0c4.59-2.83,6.65-.79,9,1.13-3.92-6.33-8.22-2.88-12.81-2.65l-.41-.26a16,16,0,0,1-2.79-1.93l.34-4.78h-1a17.82,17.82,0,0,1,1.13-5.2c4-2.21,5-11,5-11L85.72,96.3s1.48-4.42.74-5.9a5.68,5.68,0,0,0-2-5.41c.49-2.22-1-3.2-2.46-3.44-1.72-2-4.56-1.76-7.11-1.76H73.55c-6,.44-4,5-2.49,8.63C69.51,87.19,68,83.32,68,83.32s-.1-.77-1.53.55S70,90.29,70,90.29a17.76,17.76,0,0,1-4.31-4.09c-1.66.44-1.33,3.21-.71,5-1.37.88.71,7.52.71,7.52l-1.41-2.37-2.64-1.8s1,6.16,3.51,7.48a5.64,5.64,0,0,1,0-3s2.69,7.28,1.86,9.28h2.31c-1-2-1.71-3.78-1.71-3.78s1.92,1.86,3.62,6.54a8.27,8.27,0,0,1-1.89-2.55c-.33.14-1.55.69-1.62,1.28s-.84,3.44-.84,3.44a3.31,3.31,0,0,1-.85,1.57h0l-.11.12,0,0-2.2-9,.38-3.08c.31.38.63.75.95,1.08L66.6,110l-.14-1.72h.2l-1.16-4.61c0-.06,0-.06,0-.12-1.66-.76-2.78-2.7-3.53-4.8l-.64.17s.3.49.77,1.18l-.68.17-.06-.25h0c0-.66,0-1.08,0-1.08l-.8.2s.35-1-.69-3.09a3.17,3.17,0,0,1-.21,2.18s0-.09,0-.14,0,.14,0,.21a4,4,0,0,1-.33.58l0,.11-.43.11,0-.11a2.27,2.27,0,0,1-.86-.34l-.07-.14s0,.08,0,.11a2.83,2.83,0,0,1-1.14-1.82,6,6,0,0,0,.61,3.12l-.8.2s.22.35.58.89l-.11.09.06.25-.43.11-.06-.25,0,0c0-.65,0-1.07,0-1.07l-.8.2s.36-1-.68-3.1a3.18,3.18,0,0,1-.21,2.19c0-.05,0-.09,0-.15s0,.15,0,.23a3.91,3.91,0,0,1-.32.56l0,.11-.86.21,0-.11-.31-.18-.19-.41c0,.11.05.22.07.33a3.25,3.25,0,0,1-1.4-2c0,2.32.81,3.07.81,3.07l-.8.2.58.91-.09.07.06.25-.43.11-.06-.25-.15,0c0-.64.08-1,.08-1l-.8.2s.37-1-.67-3.1a3.2,3.2,0,0,1-.21,2.21c0-.06,0-.11,0-.17s0,.16,0,.24a3.81,3.81,0,0,1-.32.55l0,.11-.86.21,0-.11a3.44,3.44,0,0,1-1.84-2.24c0,2.32.8,3.07.8,3.07l-.8.2a23.34,23.34,0,0,0,3.33,5l2.65,10.8.86-.21-2.65-10.8c.05-.41.1-.84.14-1.29a21.19,21.19,0,0,0,2,2.45l2.26,9.22.43-.11-2.26-9.22c.29-1,.51-2,.68-3l.65,1,2.65,10.8.86-.21-2.65-10.8c.1-.36.19-.75.26-1.13a20.31,20.31,0,0,0,1.85,2.29l2.26,9.22.43-.11-2.26-9.22c.32-1.11.56-2.29.74-3.28.33.41.68.81,1,1.17L63,115.88l.43-.11L60.78,105c.1-.37.19-.75.26-1.14a19.79,19.79,0,0,0,1.84,2.3l2.26,9.22.42-.1.31-.27c-.83.85-4.88,5.13-4.14,6.75a20.46,20.46,0,0,0-2.39-2.26L66,128s-7.67-9.83-10.58-6.23c-.11.17-.22.35-.32.54l-1.66.49-.62.15.08.34a14.39,14.39,0,0,1,2-.6L59,127s-4.62-3.34-9.32-.43-4.53,6.5-6,12.92-.81,10.08-11.4,7.52c0,0,3.69,3,10.83,2-.2.05-.38.26-.53.26h3.66s-3.85.17-3.76,1.29,1.88,2.62,1.88,2.62l-2.39-.7-5.47,9.57s6.62,3.08,8.44,5.73l-6.61-3.59a13.14,13.14,0,0,0-1.85,3.88c.78,2.13,1.75,4.9,2.93,8.51-3.25-6-4.88-9.15-4.88-9.15s-.93,12.93-5,23.57a1,1,0,0,1,.67.32c-.1.41-.18.79-.25,1.09a20,20,0,0,0,1,11.44,2,2,0,0,0,2.22,1,1.59,1.59,0,0,0,2,1.37c1.88,1.71,6.83.68,7.34,0s-.68-1.88-1.37-3.59c3.24-.51,1.57-2.37,1.57-2.37s-1.74-.53-1.57-1.73S38,194.7,38,194.7a27.25,27.25,0,0,1,4.61-14.17c4.19-6.43,3-8.14,3.45-10.65,1.91,1.57,3.25,2.77,3.25,2.77l2.46-4.92s.24-.84.89-.84c.18,0,4.12-.89,3.94,7.19l-1.26,2.69s1.62,1.63,5.57,2.34c-5.21.53-5.75,2.68-4.13,3.22-2,2-3.23,4.67-3.05,9.16-1.4,4.91-3.91,19.64-13.1,35.17a10.28,10.28,0,0,1-.68,1.14l5.66-.74,6-.91s-4,2.51-4.31,6.46c-.27,3-1.07,7.18-1.45,9.07,3.6,3.1,7.89,6.52,9.89,7.09-5.93,0-12.57-6.11-12.57-6.11s-.15,18.51-7.62,34.13c-2,1.23-7.63,9.36-9.6,11.57s-7.63,4.43-7.63,4.43-6.4,4.92,5.42,6.65,17-3.94,19.94-6.89c3-1,3.94-1.23,3.95-3.2s-1.24-8.62.24-10.59-1-2.46,0-6.4,3.2-4.43,6.4-7.14,6.16-10.83,6.16-10.83,3-1.48,1.48-3.2c1.48-3.69.74-9.35,1.72-13.53s2.64-5.33,2.64-5.33h7.37v-3h3v3h7.28s1.66,1.15,2.64,5.33.25,9.72,1.72,13.41c-1.48,1.72,1.48,3.26,1.48,3.26s3,8.15,6.16,10.86,5.42,3.22,6.4,7.15-1.48,4.44,0,6.41.23,8.62.24,10.59,1,2.22,3.95,3.2c3,3,8.12,8.62,19.94,6.89S131.76,292.8,131.76,292.8Zm-63.83-194a20,20,0,0,1,4.25,1.46C71.13,101.28,69,100.22,67.94,98.76Zm10,1.46a20,20,0,0,1,4.25-1.46C81.1,100.22,79,101.28,77.91,100.22Z"/><path class="cls-3" d="M65.69,98.69s-2.08-6.63-.71-7.52c-.62-1.77-1-4.53.71-5A17.74,17.74,0,0,0,70,90.29s-5-5.09-3.54-6.41S68,83.32,68,83.32s1.55,3.87,3.1,5.09c-1.55-3.65-3.76-8.19,2.54-8.63h0c-2.19,0-4.27.13-5.7,1.77-1.48.25-2.93,1.23-2.44,3.45a5.69,5.69,0,0,0-2,5.42c-.74,1.48.74,5.91.74,5.91Z"/><path class="cls-3" d="M65.55,103.65l0,0c1.43,3,1.52,4,1.42,4.86.83-2-1.86-9.39-1.86-9.39a5.17,5.17,0,0,0,0,2.86c-2.48-1.33-3.51-7.48-3.51-7.48l2.64,1.8-3.69-4.19A30.07,30.07,0,0,0,62,98.82C62.77,100.92,63.89,102.89,65.55,103.65Z"/><path class="cls-3" d="M66.58,108.32h-.11L66.6,110l.27,3.17s.75-2.72.84-3.41,1.29-1.12,1.62-1.26a8.46,8.46,0,0,0,1.89,2.58c-1.7-4.68-3.62-6.59-3.62-6.59s.72,1.78,1.71,3.78H66.58Z"/><path class="cls-3" d="M65.91,114.95l.11-.12h0l-.07.07Z"/><path class="cls-3" d="M43.67,139.52c1.45-6.42,1.28-10,6-12.92S59,127,59,127l-4.06-4.37a14.39,14.39,0,0,0-2,.6c-.39.14-1.13.38-2.68.87-4.68,1.48-6.65,6.16-6.89,9.36s-.74,8.12-2.22,10.59-8.86,3-8.86,3C42.86,149.6,42.21,145.94,43.67,139.52Z"/><path class="cls-3" d="M36.48,162.11,42,152.52l2.39.68s-1.8-1.49-1.88-2.6,3.76-1.29,3.76-1.29H42.57a2.75,2.75,0,0,0-1.19,2.45s-2.46,4.9-6.16,11.05a13.57,13.57,0,0,1,3.09,1.44l6.61,3.58C43.1,165.19,36.48,162.11,36.48,162.11Z"/><path class="cls-3" d="M39.39,176.65c-1.18-3.61-2.15-6.38-2.93-8.51l-.05.16a49.85,49.85,0,0,0-3-7.18c1.51,5.12-2,21.82-3.85,29.95,4.07-10.64,5-23.57,5-23.57S36.14,170.66,39.39,176.65Z"/><path class="cls-3" d="M56.73,182.33c-1.62-.54-1.08-2.69,4.13-3.22-4-.71-5.57-2.34-5.57-2.34l1.26-2.69c.18-8.07-3.76-7.23-3.94-7.19a1.61,1.61,0,0,1,1.08.6c1.48,1.48,1.23,8.12.49,8.62s.49,2.71.49,2.71a1.77,1.77,0,0,0-.25,3c-2,1.72-2,9.11-2,9.11s-7.88,28.23-11.87,35.79c9.18-15.53,11.69-30.26,13.1-35.17C53.5,187,54.76,184.3,56.73,182.33Z"/><path class="cls-3" d="M55.66,248.77c-2-.57-6.29-4-9.89-7.09.38-1.89,1.18-6.09,1.45-9.07.36-4,4.31-6.46,4.31-6.46l-6,.91a14.49,14.49,0,0,1,.2,4.43c-.29,2.22-1.68,8.86-1.68,8.86l-4.19-3.94c2.46,9.6-1,29.05-4.43,40.38,7.47-15.62,7.62-34.13,7.62-34.13S49.73,248.77,55.66,248.77Z"/><path class="cls-4" d="M82.16,98.76a20,20,0,0,0-4.25,1.46C79,101.28,81.1,100.22,82.16,98.76Z"/><path class="cls-4" d="M67.94,98.76c1.06,1.46,3.19,2.53,4.25,1.46A20,20,0,0,0,67.94,98.76Z"/></g></g></svg>