<svg xmlns="http://www.w3.org/2000/svg" viewBox="0 0 100 150"><defs><style>.cls-1{fill:none;}.cls-2{fill:#292331;}</style></defs><title>fighterIcon</title><g id="Layer_2" data-name="Layer 2"><g id="Layer_1-2" data-name="Layer 1"><rect class="cls-1" width="100" height="150"/><g id="cNB71n"><path class="cls-2" d="M29.46,49.34c-2.31,1.38-4.62,2.76-7,4.09a4.85,4.85,0,0,0-1.49,1c-.27.37-.13.9-.35,1.32a2.93,2.93,0,0,1-2.38,1.61,2.77,2.77,0,0,1-2.55-3.9,2.73,2.73,0,0,1,2.16-1.56c.48-.05.91.17,1.37.16s1.14-.64,1.58-1c2.43-1.84,5-3.55,7.33-5.49-.27-.16-.55-.24-.72-.51s-.09-.55-.35-.78-.31-.13-.41-.28-.05-.38-.12-.58,0-.12-.25-.29-.21-.09-.3-.17a.71.71,0,0,1-.2-.38c0-.09,0-.21,0-.29-.13-.36,0,0-.17-.24s-.49-.2-.58-.59c0-.11,0-.28,0-.37s-.12-.08-.3-.22-.32-.19-.41-.38,0-.53-.13-.67-.46-.15-.61-.42,0-.55-.06-.69-.44-.14-.56-.26A.7.7,0,0,1,22.8,38c-.08-.45,0-.35-.37-.58s-.26-.42-.41-.8-.05-.1-.26-.27a3.15,3.15,0,0,1-.27-.18c-.3-.3,0-.56-.2-.84s-.44-.18-.56-.31a.7.7,0,0,1-.2-.43c-.07-.4.05-.32-.33-.55a.79.79,0,0,1-.39-.39c-.07-.17,0-.47,0-.6s-.44-.17-.57-.3a.8.8,0,0,1-.18-.46,2,2,0,0,0,0-.36c-.06-.09-.35-.15-.44-.23-.35-.29-.17-.7-.39-1s-.4-.14-.53-.31-.06-.38-.13-.59,0-.07-.17-.26-.27-.1-.37-.21a.75.75,0,0,1-.21-.51,1.76,1.76,0,0,0,0-.35c-.06-.08-.37-.11-.47-.2-.26-.21-.22-.42-.3-.71s0-.08-.21-.29c-.09-.08-.23-.11-.32-.2-.27-.27-.07-.5-.21-.77s-.45-.21-.63-.43a.93.93,0,0,1-.12-.83,4.31,4.31,0,0,1-3.79-2.8,4.09,4.09,0,0,1,6.1-4.76,4.27,4.27,0,0,1,1.61,4.92.88.88,0,0,1,.82.77,2.51,2.51,0,0,0,0,.36s.26.07.32.11a.94.94,0,0,1,.44.53c0,.09,0,.23,0,.32.14.38-.07,0,.15.23s.35.14.48.33.06.38.13.57c.12.36-.05,0,.17.24s.3.12.42.27.1.38.18.6-.16,0,.15.27c.07.06.2.08.27.14.36.29.19.69.4.95s.44.17.58.41,0,.56.07.69.46.17.59.33.07.46.18.71.34.19.53.37a.92.92,0,0,1,.24.57c0,.17,0,.21.07.32s.24.09.32.15a.79.79,0,0,1,.37.57c0,.21-.06.28.07.41s.24.09.32.15a.76.76,0,0,1,.35.49c0,.11,0,.28,0,.36s.08.08.23.19.37.19.48.42,0,.51,0,.63.49.18.61.33.11.38.18.6-.06.06.16.27.27.11.37.21a.75.75,0,0,1,.2.37c0,.09,0,.2,0,.29.12.36,0,0,.17.25s.37.17.49.38a.82.82,0,0,1,.1.3c.06.37-.09.21.15.45s.41.19.54.46a1.47,1.47,0,0,1,.07.32.92.92,0,0,1,0,.3l.18.06c.2.21.46.2.57.53,0,.11,0,.25,0,.34.09.25-.05.1.21.29s.4.22.51.49a1.78,1.78,0,0,1,0,.3c.06.28,0,.16.14.31s.41.18.53.45a1.28,1.28,0,0,1,0,.8q3-1.78,6-3.59c1-.6,2.12-1.13,3.06-1.83.61-.45.45-1.36.89-2a2.73,2.73,0,1,1,3.61,3.92,3.4,3.4,0,0,1-2.32.22c-.47,0-.77.29-1.13.55l-1.59,1.18-2.85,2.12-1.37,1-.69.51a2.69,2.69,0,0,0-.35.26c-.22.24-.2.08-.1.36a7.54,7.54,0,0,0,1,1.45l1,1.56,2,3,4.1,6.12L59.69,82.25,76,106.63c2.53,3.79,5.08,7.55,7.27,11.55a86.9,86.9,0,0,1,5.44,12.05,9.52,9.52,0,0,1,.85,2.91c-2.4-2.2-4.73-4.4-7-6.78a93.72,93.72,0,0,1-6.31-7.44c-4.06-5.35-7.65-11.08-11.39-16.65q-11.36-16.94-22.7-33.9l-12.73-19C27.78,50.34,29.59,49.53,29.46,49.34Z"/></g><g id="cNB71n-2" data-name="cNB71n"><path class="cls-2" d="M70.57,49.36c2.31,1.38,4.61,2.76,7,4.09a4.85,4.85,0,0,1,1.49,1c.27.37.13.9.35,1.32a2.93,2.93,0,0,0,2.38,1.61,2.77,2.77,0,0,0,2.55-3.89,2.73,2.73,0,0,0-2.16-1.56c-.48-.05-.91.17-1.37.16s-1.14-.64-1.58-1c-2.43-1.84-5-3.56-7.33-5.5.27-.16.55-.24.72-.51s.09-.55.35-.78.31-.13.41-.28.05-.38.12-.58,0-.12.25-.29.21-.09.3-.17a.71.71,0,0,0,.2-.38c0-.09,0-.21,0-.29.13-.36,0,0,.17-.24s.49-.2.58-.59c0-.11,0-.28,0-.37s.12-.08.3-.22.32-.19.41-.38,0-.53.13-.67.46-.15.61-.42,0-.55.06-.69.44-.14.56-.26a.7.7,0,0,0,.21-.44c.08-.45,0-.35.37-.58s.26-.42.41-.8.05-.1.26-.27a3.15,3.15,0,0,0,.27-.17c.3-.3,0-.56.21-.84s.44-.18.56-.31a.7.7,0,0,0,.2-.43c.07-.4-.05-.32.33-.55a.79.79,0,0,0,.39-.39c.07-.17,0-.47,0-.6s.44-.17.57-.3a.8.8,0,0,0,.18-.46,2,2,0,0,1,0-.36c.06-.09.35-.15.44-.23.35-.29.17-.7.39-1s.4-.14.53-.31.06-.38.13-.59,0-.07.17-.26.27-.1.37-.21a.75.75,0,0,0,.21-.51,1.76,1.76,0,0,1,0-.35c.06-.08.37-.11.47-.2.26-.21.22-.42.3-.71s0-.08.21-.29c.09-.08.23-.11.32-.2.27-.27.07-.5.21-.77s.45-.21.63-.43a.93.93,0,0,0,.12-.83,4.31,4.31,0,0,0,3.79-2.79,4.09,4.09,0,0,0-6.1-4.76,4.27,4.27,0,0,0-1.61,4.92.88.88,0,0,0-.82.77,2.51,2.51,0,0,1,0,.36s-.26.07-.32.11a.94.94,0,0,0-.44.53c0,.09,0,.23,0,.32-.14.38.07,0-.15.23s-.35.14-.48.33-.06.38-.13.57c-.12.36.05,0-.17.24s-.3.12-.42.27-.1.38-.18.6.16,0-.16.27c-.07.06-.2.08-.27.14-.36.29-.19.69-.4.95s-.44.17-.58.41,0,.56-.07.69-.46.17-.59.33-.08.46-.18.71-.34.19-.53.37a.92.92,0,0,0-.24.57c0,.17,0,.21-.07.32s-.24.09-.32.15a.79.79,0,0,0-.37.57c0,.21.06.28-.07.41s-.24.09-.32.15a.76.76,0,0,0-.35.49c0,.11,0,.28,0,.36s-.08.08-.23.19-.37.19-.48.42,0,.51,0,.63-.49.18-.62.33-.11.38-.18.6.06.06-.16.27-.27.11-.37.21a.75.75,0,0,0-.2.37c0,.09,0,.2,0,.29-.12.36,0,0-.17.25s-.37.17-.49.38a.82.82,0,0,0-.1.3c-.06.37.09.21-.15.45s-.41.19-.54.46a1.47,1.47,0,0,0-.07.32.92.92,0,0,0,0,.3l-.18.06c-.2.21-.46.2-.57.53,0,.11,0,.25,0,.34-.09.25.05.1-.21.29s-.4.22-.51.49a1.78,1.78,0,0,0,0,.3c-.06.28,0,.16-.14.31s-.41.18-.53.44a1.28,1.28,0,0,0,0,.8q-3-1.78-6-3.6c-1-.6-2.12-1.14-3.06-1.83-.61-.45-.45-1.36-.89-2a2.73,2.73,0,1,0-3.61,3.92,3.4,3.4,0,0,0,2.32.23c.47,0,.77.29,1.13.56l1.59,1.18,2.85,2.12,1.37,1,.69.52a2.69,2.69,0,0,1,.35.26c.22.24.2.08.1.36a7.54,7.54,0,0,1-1,1.45l-1,1.56-2,3-4.1,6.12L40.32,82.24,24,106.61c-2.53,3.78-5.09,7.54-7.27,11.54a86.9,86.9,0,0,0-5.45,12,9.52,9.52,0,0,0-.86,2.91c2.41-2.2,4.73-4.4,7-6.78a93.72,93.72,0,0,0,6.32-7.44c4.07-5.34,7.66-11.07,11.4-16.64Q46.47,85.32,57.82,68.37l12.75-19C72.24,50.36,70.44,49.55,70.57,49.36Z"/></g></g></g></svg>