<svg xmlns="http://www.w3.org/2000/svg" viewBox="0 0 150 300"><defs><style>.cls-1{fill:none;}.cls-2{fill:#fff;}.cls-3{fill:#011b34;}.cls-4{fill:#14446a;}</style></defs><title>gnomeIcon</title><g id="Layer_2" data-name="Layer 2"><g id="Layer_1-2" data-name="Layer 1"><rect class="cls-1" width="150" height="300"/><path class="cls-2" d="M66.09,154.26a.9.9,0,0,0,.5,1.07A3.11,3.11,0,0,0,69,154.26,8.18,8.18,0,0,0,66.09,154.26Z"/><path class="cls-3" d="M108.05,170.51a1,1,0,0,0,.15-.18Z"/><path class="cls-3" d="M52.82,214.48l.37-.28A.84.84,0,0,0,52.82,214.48Z"/><path class="cls-3" d="M131.65,205.94a1,1,0,0,0-.33.3l-13.53,18.68c-.42-1.28-.63-2.27-.63-2.27l2.57-1.47s-1.1-2-2.33-4.41,0-5.88,0-5.88l3.06-2.57s-1.47-1.72-2.82-3.68a43.56,43.56,0,0,1-3.06-6.25l2.33-1.84s-1.23-1.47-1.47-7.23-2.33-8.82-5-9.93a12.19,12.19,0,0,1-5.39-4.53c-.74-1.23-1.84.49-2.33-.49s-1.23,0-1.23,0a2.37,2.37,0,0,0-1.1-2c4.53,1.16,7.07-1.21,7.69-1.9-.39.38-1.63,1.21-4.87.92,1.72-.12,5.76-1.23,6.37-9.44-2.21,9.8-9.93,5-10.78-2.33s-6.62-5.15-6.62-5.15a5.34,5.34,0,0,0,1.35-2.08c.49-1.35-2-.25-2-.25s.61-.61-.12-1.72c.49-.86-.61-.74-1.23-1.59.25-1.47-1.84-1.1-1.35-2.45-.86-12.13-15.81-7-15.81-7A4.23,4.23,0,0,0,74.39,135a6.5,6.5,0,0,1-2.77,5.27c-2.94,2.11-2,3.09-1.21,3.55s.3,2.41.3,2.41-.91-1.11-3.55-.44c0,0-5.29,2.79-6.44,5.83.81,1.8,1.71,2.13,1.71,2.13a4.76,4.76,0,0,1-.13-2.36c.6,1.8,2.18,1.84,4.2.3-1.11,1.71-2.14,3.21-3.43,2.65-.47,2.06-1.74,2.33-4,2h0l-.21,0a2.49,2.49,0,0,0-2,2.21c-.12,1.84,1.59,3.06,2.94,4.29-.37,1.35-1.1,2.21,1.35,3.8-.61.49-.12,1.47-.12,1.47s.16.24.81.38a3.31,3.31,0,0,1,.51,2.31s-1.21.28-1.13,1a1.73,1.73,0,0,1-.19,1.3,3.86,3.86,0,0,0-2,.39l1.24,3.66a8.49,8.49,0,0,0-2-2.29,2.14,2.14,0,0,1-.88.93l.26.24s.32,2.31-2,1.55c-3.16-1-3.08,1.28-3.08,1.28l0-.12c0,.1,0,.16,0,.16l-.86-1,4.68,5.43c-5.37-3.62-10.73.91-10.73.91l6-6.34-1.84,1.84-1.14-3.43-.42.2-.54-1.63a19.91,19.91,0,0,0,2.42-3.19c.48-1.06-.1-4.26.29-6.48s1.64-3.29.87-4a1.85,1.85,0,0,0-.86.26,6.76,6.76,0,0,0,.44-2.3c0-2.86-2.25-5.3-4.25-6.29v-2.61H47c.45,0-.43-.67-.43-1.13v0c0-.45.89-.83.43-.83H45.86s-.3,0-.3-.07v-.61c0-.51-.1-1.31-.62-1.31h-1c-1.37,0-2.09,1.81-2.09,1.81s.17.15,1,.19c.44,0,.95.05,1.52.08-.67,0-1.16,0-1.52,0-2.45,0-3,.38-3.06.59a1,1,0,0,0,0,.13s-.1,0-.1,0h-.12v0a1.31,1.31,0,0,0,1,1.13h.51a12.59,12.59,0,0,1,2.88-.22c-1.7.05-2.88,3.15-2.88,3.15s.3.21,2.88.32c-5,.1-5.46,4.56-5.41,7.24a20.39,20.39,0,0,0-1.27-1.7c-.92-.84-2.52-1.44-3.58-.91a29.62,29.62,0,0,1,2.51,3.09c1,1.45,2.12,6.29,3.09,9.09a35.24,35.24,0,0,0,3.53,6.55l.34,2-1.1.52L47.37,177c-3.26,2.5-2.74,7.81-2.74,7.81l-1.49,1s-.92,1-2.14,2.16h0s-2.1,3.59-3.83,4.46-2.39,2.39-1.52,2.93,4.86,3.51,6.34,6h0A51.18,51.18,0,0,1,45.59,206c0,2.82-2.33,8.09-2.33,8.09s11.4-.49,9.93.12c0,0-.47,2.34,4,3.32-3.06,1.13-4.14,2.8-2,3.5-2.32.7-8.45,23.4-8.45,23.4l0-.16a76.75,76.75,0,0,1-3.81,10l.1,0s-1.11,4.18,1.11,4.32c2.65-8.08,5.54-21.31,5.54-21.31L46.15,260s-2.35,3.76,16.59,3.62a118.1,118.1,0,0,1-13.13,1.11l1.85.06-.74,11.52a2.83,2.83,0,0,0,.25,2.82,40.61,40.61,0,0,0-7.64,9.38s.9.92,3.15,3.27c-4.2-2.15-6.29-1.26-6.29-1.26s-2.94.49-3.31,4.66S39.83,299.48,44,300s12.74-6,13.72-7.35,5.51-2.08,6.86-4-1-5-1.23-7.23.49-4,1.23-4.53-.86-2.32-.49-4.16,2.08-2.56,2.82-3.67.86-5,.86-5,8-.35,8.82-.72.63-7.95.63-7.95H78.8a26.58,26.58,0,0,1-.49,8.23,21.93,21.93,0,0,0,7.23-.91s1,10.3.49,12.26c-.74.37-.74,1-.61,2.38a7.06,7.06,0,0,1-.25,3.82,9,9,0,0,0-.12,3.57s3.06,3.19,2.82,4.29,1.1,6.25,5.15,7.11,13,1,13-2.33a7.18,7.18,0,0,0-2.08-5.15s-2.33-8.33-5.39-12.62a6.79,6.79,0,0,0-.86-2.94,1.18,1.18,0,0,0,.12-1.72c-1-1.1.25-9.34.25-9.34a14.77,14.77,0,0,1,1.23-2.33c.61-.86-.86-2.08-.86-2.08a2.88,2.88,0,0,0,.37-3.19,6.82,6.82,0,0,1,1.75-2.91,9.29,9.29,0,0,1,2.7-2.57c-1.1-4.9-2.36-14.61-2.11-19.51a24.53,24.53,0,0,0-.74-8s-1-2.33-.25-2.82.49-1.35,0-2.82c1.1-.61.25-2.94.25-3.31a36.49,36.49,0,0,1,1.59-3.68l1.23,7a3.44,3.44,0,0,0,1.84-1.23c.49,4.17,4,10,4,10l1.47-.74a7.46,7.46,0,0,1-.49,4.66c-2.21,1.1-1.59,2.94-1.59,4.53s-1.47,2-1.1,4a25.43,25.43,0,0,1,.34,2.93l-1.08,1.38a.92.92,0,0,0-.07.94,1.46,1.46,0,0,0-1.55.39l-.53.71a1.6,1.6,0,0,0,.6,2.08L107,247a1.33,1.33,0,0,0,1.93-.24l.53-.71a1.26,1.26,0,0,0,0-1.49h.24a7.15,7.15,0,0,1,.19,1.89c.37,1,2.45.37,3.55-1.47s4-6,5.64-7.23,1.35-1.35,1.35-4.78a9.9,9.9,0,0,0-.25-2.26v0c1.58,1,6.06,3.78,6.36,3.39l.09-.12a1.25,1.25,0,0,0-.34-1.65l-3.63-2.65s0,0,0,0l14.58-19.08a1,1,0,0,0,.18-.39l2.07-8.8ZM45.33,167.07c-1.74.48-1.26,2.52-2.32,1.35-.69-1-1.49-2.24-2-3.13a6.74,6.74,0,0,0,7.27-.81,2.62,2.62,0,0,0,0,.55c-.39.1-.77,1.84-.77,1.84S47.07,166.58,45.33,167.07Zm14.87-7.59a2.36,2.36,0,0,1,2.65-.28A10.91,10.91,0,0,1,60.2,159.47Zm6.39-4.14a.9.9,0,0,1-.5-1.07,8.18,8.18,0,0,1,2.89,0A3.11,3.11,0,0,1,66.59,155.34Z"/><path class="cls-4" d="M63.07,154.39c1.28.56,2.31-.94,3.43-2.65-2,1.54-3.6,1.5-4.2-.3a4.76,4.76,0,0,0,.13,2.36s-.9-.33-1.71-2.13c1.16-3,6.44-5.83,6.44-5.83a13.1,13.1,0,0,0-7.11,5.89L61.28,154A2.43,2.43,0,0,1,59,156.34h0C61.33,156.72,62.6,156.44,63.07,154.39Z"/><path class="cls-4" d="M43.95,153.52c-2.58-.1-2.88-.36-2.88-.36a6.65,6.65,0,0,0-3.81,5.94,19.73,19.73,0,0,1,1.27,1.69C38.49,158.11,38.9,153.62,43.95,153.52Z"/><path class="cls-4" d="M43.43,149.92c-2.06,0-2.88,0-2.88,0v3.21S41.73,150,43.43,149.92Z"/><path class="cls-4" d="M42.84,148.42c.36,0,.86,0,1.52,0C43.79,148.43,43.29,148.42,42.84,148.42Z"/><path class="cls-4" d="M42.84,148.42a4.59,4.59,0,0,1-1-.1h-1.3a.8.8,0,0,0-.78.68C39.87,148.79,40.4,148.44,42.84,148.42Z"/><path class="cls-4" d="M39.77,149.12v0h0Z"/><path class="cls-4" d="M43.95,146.77H42.78c-.51,0-.73.36-.73.87v.61a1.09,1.09,0,0,1,0,.11S42.58,146.77,43.95,146.77Z"/><path class="cls-4" d="M70.71,146.28s.53-2-.3-2.41-1.73-1.43,1.21-3.55A6.5,6.5,0,0,0,74.39,135c.12,2.82-5.51,6.13-5.51,6.13a4.41,4.41,0,0,0-1.71,4.66C69.79,145.17,70.71,146.28,70.71,146.28Z"/><path class="cls-4" d="M60.23,177.16,59,173.49a3.86,3.86,0,0,1,2-.39,1.73,1.73,0,0,0,.19-1.3c-.08-.7,1.13-1,1.13-1a3.31,3.31,0,0,0-.51-2.31c-.65-.14-.81-.38-.81-.38l-8.45,2.82a40.34,40.34,0,0,1,5.64,3.92A8.49,8.49,0,0,1,60.23,177.16Z"/><path class="cls-4" d="M55.54,177.58c2.36.76,2-1.55,2-1.55l-.26-.24c-1.16.7-3,.79-3.9,1.16a1.73,1.73,0,0,0-1,1.8l0,.12S52.38,176.57,55.54,177.58Z"/><path class="cls-4" d="M35.64,195.32c-.87-.54-.22-2.06,1.52-2.93S41,187.93,41,187.93h0a32.7,32.7,0,0,1-4.35,3.72c-2.33,1.47-6.86,2.82-2.08,4.66A17.73,17.73,0,0,1,42,201.36h0C40.5,198.83,36.51,195.86,35.64,195.32Z"/><path class="cls-4" d="M55.17,221c-2.14-.7-1.06-2.37,2-3.5-4.46-1-4-3.32-4-3.32l-.37.28c-.66.91,1,3,1,3a2.13,2.13,0,0,0-1,2.56c-3.06,1.1-4.9,18.87-6,23.65,0,.18-.09.35-.13.53l0,.16S52.86,221.71,55.17,221Z"/><path class="cls-4" d="M46.15,260l3.46-22.71s-2.89,13.23-5.54,21.31c-2.23-.14-1.11-4.32-1.11-4.32l-.1,0c-.56,1.31-1,2.49-1.32,3.42-1,3.19-.37,3.8,2,3.55-.86,2.82.12,3.31.12,3.31l6,.19a118.1,118.1,0,0,0,13.13-1.11C43.8,263.78,46.15,260,46.15,260Z"/><path class="cls-4" d="M46.49,291.8c-2.25-2.35-3.15-3.27-3.15-3.27A40.61,40.61,0,0,1,51,279.14c-2.7,1.35-10.78,11.4-10.78,11.4S42.3,289.65,46.49,291.8Z"/><path class="cls-4" d="M60.2,159.47a10.91,10.91,0,0,0,2.65-.28A2.36,2.36,0,0,0,60.2,159.47Z"/><path class="cls-4" d="M56.27,183.36l-4.68-5.43-6,6.34S50.91,179.74,56.27,183.36Z"/><path class="cls-4" d="M47.37,177l-5.31,2.47,1.08,6.33,1.49-1S44.11,179.47,47.37,177Z"/></g></g></svg>