<svg xmlns="http://www.w3.org/2000/svg" viewBox="0 0 28.68 21.46"><defs><style>.cls-1{fill:#292331;}</style></defs><title>goldIcon</title><g id="Layer_2" data-name="Layer 2"><g id="Second_Draft" data-name="Second Draft"><g id="gTcXuC.tif"><path class="cls-1" d="M28.68,15.1a1.51,1.51,0,0,1-.91.95,10.63,10.63,0,0,1-3.56.89,20.58,20.58,0,0,1-4.51,0,10.84,10.84,0,0,1-3.53-.87,1.35,1.35,0,0,1-.92-1.41c.05-.76,0-1.54,0-2.3l.06,0a8.12,8.12,0,0,0,3.3,1.12,21.2,21.2,0,0,0,6,.11A10.38,10.38,0,0,0,28,12.67c.24-.12.46-.27.68-.41Z"/><path class="cls-1" d="M28.68,10.84A2.26,2.26,0,0,1,27.08,12a15.48,15.48,0,0,1-5.09.71A15.5,15.5,0,0,1,16.83,12a6.34,6.34,0,0,1-1.18-.6.89.89,0,0,1-.41-.83c0-.86,0-1.71,0-2.55.51.22,1,.48,1.51.66a14.4,14.4,0,0,0,3.83.66,20.65,20.65,0,0,0,5.12-.29,7.37,7.37,0,0,0,2.84-1,.49.49,0,0,1,.14,0Z"/><path class="cls-1" d="M28.68,19.42c-.26.78-1,1-1.62,1.23a12.87,12.87,0,0,1-3.56.65,18.57,18.57,0,0,1-5.81-.42,10.4,10.4,0,0,1-1.84-.71,1.06,1.06,0,0,1-.61-1.09c0-.81,0-1.63,0-2.43.48.22.94.46,1.43.63a14,14,0,0,0,3.88.69,20.6,20.6,0,0,0,5.35-.33,7.25,7.25,0,0,0,2.76-1.06Z"/><path class="cls-1" d="M28.68,6.41c-.26.78-1,1-1.62,1.23a12.93,12.93,0,0,1-3.59.66,18.54,18.54,0,0,1-5.78-.42,10.42,10.42,0,0,1-1.83-.71,1.06,1.06,0,0,1-.61-1.09c0-.81,0-1.63,0-2.43.48.22.94.47,1.43.63A16.66,16.66,0,0,0,22,5a18.21,18.21,0,0,0,4.59-.54,6.55,6.55,0,0,0,2-.89Z"/><path class="cls-1" d="M28.68,2a1.84,1.84,0,0,1-1.27,1.09,11.94,11.94,0,0,1-3.33.73,21.28,21.28,0,0,1-4.72,0,10.63,10.63,0,0,1-2.89-.69,3.79,3.79,0,0,1-.86-.5.75.75,0,0,1,0-1.3A4.67,4.67,0,0,1,17.33.55,18.93,18.93,0,0,1,23.54.06a12.71,12.71,0,0,1,3.61.68,4.19,4.19,0,0,1,1,.53,3,3,0,0,1,.51.65Z"/><path class="cls-1" d="M0,12.29a10.38,10.38,0,0,0,4.7,1.32,20.91,20.91,0,0,0,4.63-.06,10.65,10.65,0,0,0,3.44-.9c.2-.1.39-.22.61-.35,0,.1,0,.18,0,.27,0,.74,0,1.48,0,2.22a1.05,1.05,0,0,1-.61,1.09,8.89,8.89,0,0,1-1.75.69,19.06,19.06,0,0,1-8.7,0,8.85,8.85,0,0,1-1.73-.67A1.1,1.1,0,0,1,0,14.76c0-.71,0-1.42,0-2.13C0,12.54,0,12.44,0,12.29Z"/><path class="cls-1" d="M13.41,16.76c0,.91,0,1.84,0,2.77a1.06,1.06,0,0,1-.42.64A4.76,4.76,0,0,1,11,21a19.27,19.27,0,0,1-8.61,0,9,9,0,0,1-1.72-.67A1.11,1.11,0,0,1,0,19.15c0-.8,0-1.61,0-2.4a15.71,15.71,0,0,0,1.49.65,17.38,17.38,0,0,0,5.75.7,16,16,0,0,0,4.69-.7C12.43,17.24,12.9,17,13.41,16.76Z"/><path class="cls-1" d="M7,12.68a18.36,18.36,0,0,1-4.78-.54,13.44,13.44,0,0,1-1.53-.6,1.27,1.27,0,0,1-.35-.26A.73.73,0,0,1,.39,10a5.15,5.15,0,0,1,1.09-.58,11.52,11.52,0,0,1,3.2-.67A20.91,20.91,0,0,1,10,9a8.22,8.22,0,0,1,2.53.75,2.87,2.87,0,0,1,.67.48.62.62,0,0,1,0,1,3.67,3.67,0,0,1-1,.65A10.67,10.67,0,0,1,9,12.55C8.22,12.62,7.46,12.65,7,12.68Z"/></g></g></g></svg>