<svg xmlns="http://www.w3.org/2000/svg" viewBox="0 0 150 300"><defs><style>.cls-1{fill:none;}.cls-2{fill:#011b34;}.cls-3{fill:#14446a;}.cls-4{fill:#fff;}</style></defs><title>halfElfIcon</title><g id="Layer_2" data-name="Layer 2"><g id="Layer_1-2" data-name="Layer 1"><rect class="cls-1" width="150" height="300"/><path class="cls-2" d="M144.23,183.13c-.77-2-3.22-2.91-5.82,0l-2.74,1.34a6.92,6.92,0,0,0-3.25-3.07l-1.29-4,1.29-1.16-1.27-3.9h-2.09l-7.48-15.11V153l-2.21-5.46-1,5.46A37.77,37.77,0,0,0,114,147.8a43,43,0,0,0-2.57-6l2.59-2.3-4.13-7.18,2.59-3.16-10.08-10,1-3.45c.26-.86,1.81-4.31-1.55-4.31a18.47,18.47,0,0,1-3.51-.52c-.71-2.74-2.39-7.22-6.19-9.92,7.17.38,8.84,3.59,8.84,3.59s-1-3.84-10-5a8.5,8.5,0,0,1-6.41-4.34c0-.24.07-.49.1-.75C87.33,91.24,87,83.77,87,83.77l-1.42,2.45V84.06c0-.4-.41-.79-.43-1.16A5.21,5.21,0,0,0,87,81.82c-1.09.31-2.29-2.08-2.9-3.71a13.48,13.48,0,0,0-.59-1.44.85.85,0,0,0-.06-.18.67.67,0,0,0,0-.17h0c2.74,1,3.84-3.64,3.84-3.64s-.78,2.75-3.75.87A20.83,20.83,0,0,0,78,70.8c-.14,0-5-.31-7.21,1.16s-.37,4.19-.37,4.19l-1.72-1.34c-2.83.75-1.57,7-1.57,7s-.3-1.34-1.41-1.49.33,3,.56,3.5c.23.36,0,.08,0,.08l0-.08L65.23,82.2c-.6.22.82,5.59.82,5.59l-1-2.16-.21-.28.61,3.11S64.11,85.22,64,85.85c.21,2.72-.11,5.11,1.32,8.17a17.52,17.52,0,0,1,.09-3.09s-.12,1.71,1.2,5.89a20,20,0,0,0,4.85,7.46s-1-.45-3.83-3.56l1.44,3-1.44.08-4.23,2.16a7.41,7.41,0,0,0,2.09,4.25,7.59,7.59,0,0,1-3.63-2.11c0,.32-.1,2.3,1.27,2.71-3.58-.3-3.82-1.38-3.82-1.38l-9,2.65a16.82,16.82,0,0,1,4.32,9.69c-2.61-5.67-4.85-9.17-5.89-9.25s-2.91-.27-.94,6.6l2.5-2.5-4.25,5.15-6.79,7.08,7.31,3.06-7.76-2.46,1.49,2.89-4.13,7.18s4.8-8.21,4.88-8.43a5.33,5.33,0,0,1-.9,2.91c-.9,1.12.9,4.1.9,4.1s-1.79-2.16-2.44-1.42,1.84,3.58,1.84,3.58-2.39-1.57-2.73-1,2.81,4.1,2.81,4.1l-1.77-1.57-.15.29s-1.54,6-.89,6.88c-1.52,0-4.65,5.82-4.65,5.82L32,153l.54,2.87,2.82,3.36-3.94-3-1-4.33-1,1.45.3,4.07,4,3.65-4.62-2.88-7.64,14.1H19.17L28,175.49l-8.42-1.91-1,2,6.12,3.34-5.54-1.54-1.29,4a7,7,0,0,0-3.32,3.19l-3-1.46c-2.61-2.91-5.06-2-5.82,0s.66,4.81,4.9,3.22l2.65,1.24c-1,3.32-.48,5.59.44,5.59.78,1.72,1.81,2.3,3.36,2,1,2.58,4.65,2,4.65,2L23.85,196l0,0c.15.25.3.5.44.77-.49.66-.95,1.27-1.38,1.82,1.75-2.11,3.77-4.57,5.43-6.66l-.28-.28c.17-1.24.43-3.86-.35-4.51-1-.86.79-6.32,1-6.6s1.38.29,1.38.29l1.4-3.45v-2.63l6.94-9.14,2.47-.86.22-2.58-1.83-2s3-5.74,4.46-7.75,4.06-.57,4.57-2.87L50.22,151s1.55,7.75,2.58,8.33a6,6,0,0,0,.26,4.31s-2.59,1.44-1.55,1.72c-.26,2,0,4.36,1,4.34a3.83,3.83,0,0,0-.78,2.28c-1.85,6.31,2.39,8.42,2.39,8.42s-4.56-1-5-2.42c-1.51,7-8,31.76-8,31.76l7.57,5.44-6.25-2.61-.34,1.33,0,0-2.53,16.58,13.43,2L39.69,233l-.63,3.28s2.69,8,14,14.82c-4-.15-15.77-5.58-15.77-5.58l3.36,1.63-.81,4.14L37.29,274.2l2.95,4.59-5-3.78v.06l1,2.6-.52,2.66H34.56s-5.81,8.37-6.55,8.52S32.83,293,32.83,293l-6.91-3.74.26,1.88s-2.84.56-3.36,2-2.33,4.3-1,5.45,8,2.58,15.25,0c3.88-2.3,5.69-6.32,9.31-6.89s1.55-4.88,1.81-8.9a40.09,40.09,0,0,0,0-6.32l2.59-4.31-1.28-2s1.83-.29,2.35-3.17,4.79-2.6,3.5-14.94c4.65.29,15.27,1.19,15.27,1.19v-7.48l5-.41,5,.41v7.48s10.2-.9,14.86-1.19C94.14,264.36,98,264.08,98.54,267s2.33,3.17,2.33,3.17l-1.29,2,2.59,4.31a39.9,39.9,0,0,0,0,6.32c.26,4-1.81,8.33,1.81,8.9s5.43,4.59,9.31,6.89c7.24,2.58,14,1.15,15.25,0s-.52-4-1-5.46-3.36-2-3.36-2l.26-1.7-8.64-9.06h-1.18l-.52-2.66,1-2.51-5.43-27.93,3.36-1.65-1.34-7a57.43,57.43,0,0,0,9.07-.3,60.73,60.73,0,0,1-9.48-1.7l-.64-3.23H113l-5.17-20.65,2.84-2.15s-.49-1.81-1.24-4.53c4.4-2.95,5.51-3,7.79-2.62-.77-2.15,1.23-3.69,4.75-3.23,3.07,2.45,9,3.21,9,3.21a66.39,66.39,0,0,1-5.36-6.59q.3-.55.61-1l.17.32,2.07,1.15s3.62.57,4.65-2c1.55.29,2.58-.29,3.36-2,.93,0,1.44-2.33.4-5.72l2.38-1.11C143.56,187.93,145,185.12,144.23,183.13Zm-130.83,9,2.46-7.83-.6,6,5.44,6Zm39.66-48.77s4.79-8.38,3.06-15.92C58.69,135.29,53.06,143.35,53.06,143.35Zm15.19-55c3.61-.06,3.93,1.55,3.93,1.55C68.77,90.13,67.87,89.42,68.25,88.32Zm10.44,1.55s.32-1.61,3.93-1.55C83,89.42,82.11,90.13,78.69,89.87ZM88.47,108l-1.09-3.08a13.66,13.66,0,0,1,4,4C89.65,108.39,88.47,108,88.47,108Zm34.1,79.14c-.73.61-.55,2.92-.39,4.23l-.64.64-2.76-3.83s-1.23,1.69-.92,6.28c-3.43,2.64-6.61,5-9.58,7.21-2.29-8.35-5.47-20.07-6.11-23.13-1-4.88-3.62-6.62-3.62-6.62a3.83,3.83,0,0,0-.78-2.28c1,0,1.29-2.33,1-4.34,1-.29-1.55-1.72-1.55-1.72a6,6,0,0,0,.26-4.31c1-.57,2.58-8.33,2.58-8.33l1.81-1.44c.52,2.3,3.1.86,4.58,2.87s4.47,7.75,4.47,7.75l-1.81,2,.26,2.58,2.81.86,7.35,9.14v2.63l1,3.45s.85-.57,1.11-.29S123.6,186.28,122.57,187.14Z"/><path class="cls-2" d="M32.14,194.47c.31-4.6-.92-6.28-.92-6.28C28.6,194.73,19,203.36,19,203.36s6-.77,9-3.22c3.53-.46,5.52,1.07,4.75,3.22,2.33-.39,3.43-.34,8.05,2.78L42,201.86C38.93,199.63,35.66,197.18,32.14,194.47Z"/><polygon class="cls-2" points="44.78 191.59 44.78 191.59 44.78 191.6 44.78 191.59"/><path class="cls-2" d="M67.67,100.71c-.19-.25-.36-.5-.52-.76A4.54,4.54,0,0,0,67.67,100.71Z"/><path class="cls-2" d="M31.22,188.18l-.82,1.15C30.73,188.88,31,188.49,31.22,188.18Z"/><path class="cls-2" d="M29.24,238.25a57.64,57.64,0,0,0,9.4.27l.42-2.2A76,76,0,0,1,29.24,238.25Z"/><path class="cls-3" d="M66.32,83.84l0,.08S66.55,84.19,66.32,83.84Z"/><path class="cls-3" d="M65.23,82.2l1.08,1.64c-.23-.51-1.58-3.64-.56-3.5s1.41,1.49,1.41,1.49-1.27-6.26,1.57-7l1.72,1.34s-1.9-2.68.37-4.18S77.9,70.83,78,70.84c-5.58-1.7-8.56,1.16-9.87,3a8.2,8.2,0,0,0-2.27,5.59c-1.29-.11-1.11,1.61-1.39,2.37s1,4.39,1,4.39L65,85.63l1,2.16S64.63,82.42,65.23,82.2Z"/><path class="cls-3" d="M71.5,104.27a20,20,0,0,1-4.85-7.46c-1.32-4.18-1.2-5.89-1.2-5.89A17.52,17.52,0,0,0,65.36,94C63.93,91,64.25,88.57,64,85.85c.07-.63,1.41,2.61,1.41,2.61l-.61-3.11-1.16-1.58S63,91.24,65.53,94.4A14.26,14.26,0,0,0,67.15,100c.16.26.33.51.52.76C70.53,103.83,71.5,104.27,71.5,104.27Z"/><polygon class="cls-3" points="67.57 100.71 67.57 103.75 69.01 103.68 67.57 100.71"/><path class="cls-3" d="M46.66,131.87l-7.31-3.06,6.79-7.08,4.25-5.15-2.5,2.5c-2-6.87-.11-6.67.94-6.6s3.28,3.58,5.89,9.25A16.82,16.82,0,0,0,50.4,112l9-2.65s.24,1.08,3.82,1.38c-1.37-.41-1.29-2.39-1.27-2.71a7.59,7.59,0,0,0,3.63,2.11,7.74,7.74,0,0,1-2.09-4.46l4.23-2.38H63.36l-1.51,4.46s-10.08,3.44-13.44,3.44-1.81,3.5-1.55,4.36l1,3.47L37.81,129.13l2.59,3.17-1.49-2.89Z"/><path class="cls-3" d="M37.81,139.25c.35-.6,2.73,1,2.73,1s-2.49-2.83-1.84-3.58,2.44,1.42,2.44,1.42-1.8-3-.9-4.1a5.33,5.33,0,0,0,.9-2.91c-.08.22-4.88,8.43-4.88,8.43l2.59,2.3h0l1.77,1.57S37.46,139.85,37.81,139.25Z"/><path class="cls-3" d="M33.54,161.1l-4-3.65-.3-4.07,1-1.45,1,4.33,3.94,3-2.82-3.36L32,153l1.21,1.75s3.13-5.82,4.65-5.82c-.65-.89.89-6.87.89-6.88a42.68,42.68,0,0,0-2.42,5.74A38.4,38.4,0,0,0,31.92,153l-1.06-5.46L28.57,153v4.25l-7.35,15.34,7.67-14.22Z"/><polygon class="cls-3" points="18.62 175.6 19.59 173.63 28.01 175.6 19.17 172.56 17.91 176.34 19.2 177.38 24.73 178.93 18.62 175.6"/><polygon class="cls-3" points="15.86 184.3 13.4 192.13 20.71 196.23 15.26 190.26 15.86 184.3"/><path class="cls-3" d="M53.06,143.35s5.63-8.06,3.06-15.92C57.85,135,53.06,143.35,53.06,143.35Z"/><path class="cls-3" d="M31.22,188.18c-.21.31-.49.7-.82,1.15L28.46,192l-.09-.09c-1.66,2.08-3.68,4.55-5.43,6.66a55.42,55.42,0,0,1-4,4.77S28.6,194.73,31.22,188.18Z"/><path class="cls-3" d="M41.14,209.7s6.51-24.8,8-31.76c.43,1.45,5,2.42,5,2.42s-4.23-2.12-2.39-8.42c0,0-2.58,1.6-3.62,6.48-.41,1.92-1.63,6.9-3.18,12.9h.61v.27c-1,3.49-2.33,7.13-3.19,10.28h-.21l-1.27,4.27h0c-.72,2.62-1.22,4.32-1.22,4.32l2.83,2.08,6.24,2.61Z"/><polygon class="cls-3" points="39.64 230.42 42.17 213.84 42.13 214 37.29 233.32 39.69 233.32 53.07 232.53 39.64 230.42"/><path class="cls-3" d="M39.06,236.32l-.42,2.2h0l-1.35,7s11.8,5.43,15.77,5.58C41.75,244.33,39.06,236.32,39.06,236.32Z"/><polygon class="cls-3" points="37.29 274.2 39.85 251.32 35.24 275 40.24 278.78 37.29 274.2"/><path class="cls-3" d="M28,288.65c.74-.15,6.55-8.71,6.55-8.71l-8.64,9.25,6.91,3.69S27.27,288.8,28,288.65Z"/><path class="cls-4" d="M78.69,89.87c3.42.26,4.32-.45,3.93-1.55C79,88.26,78.69,89.87,78.69,89.87Z"/><path class="cls-4" d="M68.25,88.32c-.39,1.1.52,1.81,3.93,1.55C72.19,89.87,71.86,88.26,68.25,88.32Z"/></g></g></svg>