<svg xmlns="http://www.w3.org/2000/svg" viewBox="0 0 150 300"><defs><style>.cls-1{fill:none;}.cls-2{fill:#011b34;}.cls-3{fill:#14446a;}.cls-4{fill:#fff;}</style></defs><title>halfling</title><g id="Layer_2" data-name="Layer 2"><g id="Layer_1-2" data-name="Layer 1"><rect class="cls-1" width="150" height="300"/><path class="cls-2" d="M73.68,172.59c0-1.3-.12-2.26-.12-2.26C73.62,171.25,73.66,172,73.68,172.59Z"/><path class="cls-2" d="M129.79,177.89s-2.48-.17-3.65.8a20.9,20.9,0,0,0-4.82-6.57,18.37,18.37,0,0,0-3.71-2.68,9.63,9.63,0,0,0-3.51-1.18c-.52,0-1.15-.07-1.87-.07h-.68a1.88,1.88,0,0,0-2.08-.63.93.93,0,0,0-.71.73c-1.83.1-3.79.25-5.53.4-2.94.25-5.25.51-5.25.51l.11,1,.4,0c.92-.1,3.28-.34,5.95-.56,1.44-.12,3-.23,4.42-.3.2.71.59,1.61,1,2.67-1.19-.36-.71,1.31-.71,1.31l1.07,3.93a9,9,0,0,1-.12,2.38c-.24,1.55,1,6.42,2.74,7.85,1.19,2.26-2,9.28-3.69,11.54,0-1.9-1-1.19-1-1.19l-3.45-3.21a5.22,5.22,0,0,0,.59-2.85c-1.47-.28-3-3-3.64-4.18a42.39,42.39,0,0,0,3.81-5.9,28.06,28.06,0,0,0-7-.76c-2.09-2.28-10.9-4.62-10.9-4.62v-1.94H85s0-1.09.15-4.13c1.9-.95,2.5-4.38,3.45-7.23,2.47-2.85,5.38-8.51,4.43-11a7.91,7.91,0,0,1-3.52,2.23v-.81s1-1.55.91-2.12c-.53.37-.7-.52-.79-1.19,0-.28,0-.56,0-.83s.2-.59.9-.26a4,4,0,0,0-1.2-1.92,3.4,3.4,0,0,0,.56-2.48c-.65.49-1.77-.86-1.77-.86a2.25,2.25,0,0,0,.55-2.08,2.26,2.26,0,0,1-2.31-.22s-.54-1.74.68-2.15c-1.22-.73-3.4.38-3.4.38a1.33,1.33,0,0,1,.46-1.85c-1.39-.49-3.91,1-3.91,1s.49-1.5-.33-2.15c.41,1.06-2.2,2.28-2.2,2.28s-1.87-.73-1.63-1.63c-2.2.73-2.18,3-2.86,3.44a2.56,2.56,0,0,1-2.92-.5c-.39,1.91,1,3.92,1.31,6a4.73,4.73,0,0,0-4-2.58c1.59.08,1.42,2.94,1.42,2.94l.75,1.47s-.72-.53-3.27-.28a1.44,1.44,0,0,1,.75.31c2.67,1.23,3.24,6,3.24,6s-.92-1.75-2.1-1.66a2.73,2.73,0,0,1,1.1,2.41s-.42.83-2.83,0c.42,3.08,3.47,8.09,3.47,8.09-.11-2-.22-4.35-.22-4.35.58,3.08,3.16,9.57,7.08,13a7.7,7.7,0,0,1-3.49-1.33A7.4,7.4,0,0,1,74.54,172v2.28a7.58,7.58,0,0,1-.82.06h4c-2.55,0-6.4,5.24-6.4,5.24l0-3.36c-.23.06-8.9,2.4-11,4.65,0,0,2.82-2.4,10.94-3.3l-10.94,3.33a28.93,28.93,0,0,0-7.1.76,33.64,33.64,0,0,1,4.4.46c-1,.44.62,6.23,2.52,10.16-1.1-.93-4.71-6.91-4.71-6.91l-.25.22c-2.21,3.15,3,10.95,3,10.95l-6.75-7.58,3.43,3.89s-.23.53-.59,1.33c-.63,1.82-2.22,6.35-3.19,8.47-1.23,2.69,5.88,6.06,5.88,6.06s-4.33-.87-6.26-2.33c0,0-.12.48-.29,1.21l1,.24s-1.06,4.88,0,6.42c-1.68.94-2.77,4.45-3.79,7.62a72,72,0,0,1-4.19,8.9l0-.3c-.1.19-.2.37-.31.54l-2.38,2.27-.25-.41a1.25,1.25,0,0,0,.2-1.28,1.07,1.07,0,0,0-.42-.46,2.78,2.78,0,0,0-.22-1.8,2.34,2.34,0,0,0-3-1.37,2.34,2.34,0,0,0-.82,3.17,2.78,2.78,0,0,0,1.26,1.31,1.06,1.06,0,0,0,.09.62,1.25,1.25,0,0,0,1.12.65c.12.36.26.73.41,1.13-1.61,1.61-2.27,2.52-1.93,3.21,1.3.56-1.48,1.67-.09,2.22s.46,2.22,1.39,2.78,1.29,2.92,2.2,3.14a.37.37,0,0,0-.13.44.39.39,0,0,0,.53.15l1.09-.52s5.85,13.86,7.37,17.07,9.12,10,9.12,10-.51-10.19-2-13.4-8.6-16.48-8.6-16.48l1.09-.52a.37.37,0,1,0-.31-.66l-.61.29s0,0,0,0a9.11,9.11,0,0,0,.84-.79c1.67,0,3.52-1.67,2-3.7s-1.11-3.7-2.59-5.56c2.59-5.74,8-7,9.82-14.45,1.67-6.85-2-5,0-9.08.89.22,1.85.51,2.75.81,0,4.54.65,9.4,2,10.08-.38,1.9.76,2.47.76,2.47s-1.9,1.33-1.33,1.9.57,2.66,1.52,3.23c0,0-3.24,20.65-2.65,23.16s8.58,5,8.58,5l-8.21-.47a46.72,46.72,0,0,0-1.33,6c-1.14,4.26-1.14,16-1.33,18.5-1.14,1.71-.19,2.09-.19,2.09l-1.14,2.47-.95-2.28s-.76,4.56-1.52,5.51A27.59,27.59,0,0,0,53.21,292c-2.09.76-1.9,4.18-1.9,4.18s.38,3.61,6.08,3.8,10.45-.19,10.83-3.42c1.71-1.33,2.43-1.89,1.48-5.5s-1.59-4.18-1.77-7.41a4,4,0,0,0-.38-3.61s.76-4,.95-6.27,5.23-12.15,5.61-16.9c2.09,0,5.27-.06,5.27-.06s3.19.06,5.27.06c.38,4.75,5.42,14.62,5.61,16.9s.95,6.27.95,6.27a4,4,0,0,0-.38,3.61c-.19,3.23-1,4.72-1.94,8.33s-.07,3.25,1.64,4.58c.38,3.23,5.13,3.61,10.83,3.42s6.08-3.8,6.08-3.8.19-3.42-1.9-4.18a27.59,27.59,0,0,0-2.09-4.56c-.76-.95-1.52-5.51-1.52-5.51L101,284.2l-1.14-2.47s.95-.38-.19-2.09c-.19-2.47-.19-14.24-1.33-18.5a46.72,46.72,0,0,0-1.33-6s3.23,0,3.8-2.28c-1.71-5.32-4-22.22-6.08-25.45.95-.57.95-2.66,1.52-3.23s-1.33-1.9-1.33-1.9,1.14-.57.76-2.47c1.19-.6,1.81-4.41,2-8.41l3.75,3.45,3-5.88s4.4,4.76,4.88,5.52,4.64.43,6.66-2.07c3.45-2.26,3.81-7.49,2.74-11.66s-.48-7.73-.24-12.61c1.31-1.19,3.09-4.52,3.09-8.69.59-1.55.71-4-.71-4.88a8.43,8.43,0,0,1-3.45-2.26,5,5,0,0,0-3.45-.59,25.53,25.53,0,0,0-1.51-2.54c.64,0,1.21,0,1.65.06a8.67,8.67,0,0,1,3.14,1.06,18.66,18.66,0,0,1,5.17,4.26,19.1,19.1,0,0,1,3.24,5.28s0,0,0,.06a4.24,4.24,0,1,0,8.47,0C134,177.6,129.79,177.89,129.79,177.89Z"/><path class="cls-2" d="M61.75,255.14l-2-.39A6.05,6.05,0,0,0,61.75,255.14Z"/><path class="cls-3" d="M69.48,154.94a2.73,2.73,0,0,0-1.1-2.41c1.18-.08,2.1,1.66,2.1,1.66s-.57-4.82-3.24-6A5.61,5.61,0,0,1,69,151.07c0,.6-1.3.79-2-.19-.24,1.63,2,3.34,2,3.34a7.62,7.62,0,0,1-3.42-2.2c-.95,2.47,2.06,8.17,4.53,11,0,0-3.05-5-3.47-8.09C69.07,155.77,69.48,154.94,69.48,154.94Z"/><path class="cls-3" d="M69.76,148.11,69,146.64a2.92,2.92,0,0,0-2.85,1.22.93.93,0,0,1,.33,0C69,147.58,69.76,148.11,69.76,148.11Z"/><path class="cls-3" d="M71.56,146.28c-.33-2.08-1.7-4.1-1.31-6-1,.9,0,3.74,0,3.74a2.64,2.64,0,0,0-2.66-.31A4.73,4.73,0,0,1,71.56,146.28Z"/><path class="cls-3" d="M69.9,158.68s.11,2.37.22,4.35c.95,2.85,1.55,6.35,3.45,7.3A7.1,7.1,0,0,0,77,171.67C73.06,168.26,70.48,161.76,69.9,158.68Z"/><path class="cls-3" d="M60.19,192.26c-1.9-3.93-3.49-9.71-2.52-10.15a33.42,33.42,0,0,0-4.4-.46s.94,1.79,2.21,3.7C55.49,185.34,59.09,191.33,60.19,192.26Z"/><path class="cls-3" d="M51.12,202.61c1-2.12,2.57-6.65,3.19-8.47-1,2.23-3.14,6.56-4.5,7.38A3.32,3.32,0,0,0,48,204.11l2.78,2.22c1.93,1.47,6.26,2.33,6.26,2.33S49.89,205.3,51.12,202.61Z"/><path class="cls-3" d="M47.68,221.83c1-3.17,2.11-6.68,3.79-7.62-1.06-1.54,0-6.42,0-6.42l-1-.24a45.26,45.26,0,0,0-1,6c-2.83,4.78-3.81,12.77-6,16.87l0,.3A72,72,0,0,0,47.68,221.83Z"/><path class="cls-3" d="M61.38,250.58c-.59-2.52,2.65-23.16,2.65-23.16-2.09,3.23-4.37,20.13-6.08,25.45a2.79,2.79,0,0,0,1.82,1.89l2,.39,8.21.47S62,253.09,61.38,250.58Z"/><path class="cls-3" d="M60.38,180.88l10.94-3.32C63.2,178.47,60.38,180.88,60.38,180.88Z"/><path class="cls-3" d="M77.72,174.32H71.35v1.81l0,3.36S75.17,174.32,77.72,174.32Z"/><path class="cls-3" d="M74.54,172a7.4,7.4,0,0,0-1.05-1.65s.11,1,.16,2.26c0,.61,0,1.3,0,2a1.5,1.5,0,0,1,.92-.33Z"/><path class="cls-3" d="M55.24,185.56h0l-3.77,3.36,6.75,7.58S53,188.71,55.24,185.56Z"/><path class="cls-4" d="M81.74,156.9a4.74,4.74,0,0,1,3.74-1C86.35,156.5,84.57,158,81.74,156.9Z"/><path class="cls-4" d="M76.7,156.9a4.74,4.74,0,0,0-3.74-1C72.1,156.5,73.87,158,76.7,156.9Z"/></g></g></svg>