<svg xmlns="http://www.w3.org/2000/svg" viewBox="0 0 63 89"><defs><style>.cls-1{fill:#292331;}.cls-2{fill:#fff;}</style></defs><title>homeIcon</title><g id="Layer_2" data-name="Layer 2"><g id="Second_Draft" data-name="Second Draft"><polygon class="cls-1" points="63 17.65 63 0 50 0 50 16 39 16 39 0 24 0 24 16 13 16 13 0 0 0 0 17.65 8 25.43 8 71.71 2 82.44 2 89 60 89 60 82.44 54 71.71 54 25.79 63 17.65"/><path class="cls-2" d="M30.65,27.37a6.56,6.56,0,0,0-6.56,6.56V47.07H37.21V33.94A6.56,6.56,0,0,0,30.65,27.37Z"/></g></g></svg>