<svg xmlns="http://www.w3.org/2000/svg" xmlns:xlink="http://www.w3.org/1999/xlink" viewBox="0 0 150 300"><defs><style>.cls-1{fill:none;}.cls-2{fill:#011b34;}.cls-3{clip-path:url(#clip-path);}.cls-4{fill:#14446a;}.cls-5{fill:#fff;}</style><clipPath id="clip-path"><path class="cls-1" d="M124.48,189.52l-.62-2.5-2.39-1.25,2.39-1.07.8-5,3.38-1.35-2.69-2.21-.57-8.74L128,166l-3.4-2v-6.67h-3.84c.53,0-.18-1.73-1.78-2.8,1.25-.53,0-2.52-1.07-4.12.71-1.6-1-2.82-1-2.82l2-2.48-2.68-7.31,1.41-1.63-2.41-5.25a8.85,8.85,0,0,0,2.24-2.75,140.21,140.21,0,0,0-7.85-16.3l-3.22-1.54-.61-4.45-1.81,3.3-2.67-1.27-.58-3.79-1.82,2.64-2-.93s2.11-9.36-3.62-10.57c-2.72-.3-5.43,7.55-5.43,7.55l-1.81,1.33-.3-3.8H83.63l.35-3.2s2.42-.18,1.81-7.13c2.72,1.81,3.93-4.77,2.42-5.68a38.94,38.94,0,0,0-.38-9.93,7.11,7.11,0,0,0-.53-1.8,2.76,2.76,0,0,0,1.17-1.33c-.88.29-2.07-.55-3-1.41-.15-.15-.3-.3-.47-.45-.57-.59-1-1.08-1-1.08a3.76,3.76,0,0,1-.37-2c-2.83,0-3.65.21-3.85.37a4.47,4.47,0,0,0-1.31-3.51c.29,1.88-3.94,2.85-5.8,3.19l-.87.11A1.37,1.37,0,0,1,71.49,65c-2.59.72-5.17,3.12-6.19,4.14q-.27.22-.5.45c-.34-.14-2.32-1.06-2-2.75-2,1.85-2,3.88-.64,7.59-2.49,2.61-.38,10-.38,10-1.51.91-.3,7.57,2.42,5.75-.6,6.94,1.81,7,1.81,7l.35,3.2H64.21l-.3,3.8-1.81-1.49s-2.72-7.77-5.43-7.47C50.93,96.37,53,105.77,53,105.77l-2,1-1.82-2.63-.58,3.79L46,109.16l-1.81-3.3-.61,4.45-3.22,1.54a140.25,140.25,0,0,0-7.85,16.3,8.86,8.86,0,0,0,2.24,2.75l-2.42,5.26,1.41,1.63-2.68,7.32,2,2.5s-1.7,1.25-1,2.86c-1.07,1.6-2.32,3.51-1.07,4-1.6,1.07-2.32,2.8-1.78,2.8H25.58V164l-3.48,2,3.13,1.43-.57,8.74L22,178.36l3.38,1.35.8,5,2.39,1.07L26.14,187l-.62,2.5-2,1.07L25,191.66l-.36,2.85,4.28,2.85.53,2.14,2.14.89s.53,2.67,1.78,2.67,5,.53,5.88-1.78,1.6-5.88.71-6.42c2.14-.53,3-.89,3.21-2.5A6,6,0,0,0,42.1,189l-2.32-1.6s1-2.5-.38-2.32a9.51,9.51,0,0,1,3.18-.89v-3.23l-1.8-.34s2.8-4.28,3.51-7.13a3.73,3.73,0,0,0,2.65-2.14l-.73-3.57-1.43-2.14,1.24-2,3.39,1.07s2.32-5.32,2.14-7.63c1.43-.89.53-4.78.53-4.78h2.09l.89-2.4c1.22,2.19,2.09,3.53,1.6,3.9-1.21.91.3,3-1.21,3.93s1.21,3.32.3,4.83S57,165.29,57,165.29l-3.62.91-.91,6.64-1.67,1.81-4.67,15.7,1.21,1.81-.6,2.95-2.11,1.58L40.06,213l1.51,1.81s-.3,1.21-1.51,4.83c1.51,1.51,3.93,4.23,3.93,4.23l2.11,1.51-2.42,1.21c-2.42,1.21.91,3.32.91,3.32L41,232.62l-.91,7.25-4.23,3.93,3,2.11-.6,10.87-3,3.62,3,2.72-.3,4.83,4.23,1.81-4.23.91-5.15,6.49L29.9,275l.54,5.15-3.77,4.74L28.88,287l-2.11,2.72c-.6,5.74,1.81,10,5.74,10.27s18.72-1.5,19.32-6.63a19.33,19.33,0,0,1,6-11.15c1.81-1.51-.6-7.91-.6-7.91l-3.67-2.94h1.86l3.32-1.22,2.11-4.59s0,.47-2.11-1.95c3-4.53,6.21-21.25,6.21-21.25h3.15l-.87-4.1s-2.8-.57-1.9-4c2.72-.13,7.21-.2,7.21-.2v-8.68h5V234s4.41-.13,7.13,0c.91,3.45-2,4.22-2,4.22l-.82,4.1H85s3.19,16.74,6.21,21.27c-2.11,2.42-2.11,2.18-2.11,2.18l2.11,4.44,3.32,1.12h1.86l-3.67,2.94s-2.42,6.35-.6,7.86a19.4,19.4,0,0,1,6,11.18c.6,5.13,15.4,6.95,19.32,6.65s6.34-4.53,5.74-10.26L121.12,287l2.21-2.11-3.77-4.75.54-5.15-2.89,2.2-5.15-6.49-4.23-.91,4.23-1.81-.3-4.83,3-2.72-3-3.62-.6-10.87,3-2.11-4.23-3.93-.91-7.25-3.62-2.72s3.32-2.11.91-3.32l-2.42-1.21,2.11-1.51s2.42-2.72,3.93-4.23c-1.21-3.62-1.51-4.83-1.51-4.83l1.51-1.81-4.53-16.3-2.11-1.58-.6-2.95,1.21-1.81-4.67-15.7-1.67-1.81-.91-6.64L93,165.29s2.11-1.21,1.21-2.72,1.81-3.93.3-4.83,0-3-1.21-3.93c-.49-.37.38-1.71,1.6-3.9l.89,2.4h2.09s-.89,3.89.53,4.78c-.18,2.32,2.14,7.63,2.14,7.63l3.39-1.07,1.25,2-1.43,2.14-.72,3.57a3.76,3.76,0,0,0,2.66,2.14c.71,2.85,3.57,7.13,3.57,7.13l-1.72.34v3.23a9.41,9.41,0,0,1,3.1.89c-1.43-.18-.44,2.32-.44,2.32l-2.33,1.6a6,6,0,0,0-1.07,3.39c.18,1.6,1.07,2,3.21,2.5-.89.53-.18,4.1.71,6.42s4.63,1.78,5.88,1.78,1.78-2.67,1.78-2.67l2.14-.89.53-2.14,4.28-2.85-.36-2.85,1.43-1.07Z"/></clipPath></defs><title>humanIcon</title><g id="Layer_2" data-name="Layer 2"><g id="Layer_1-2" data-name="Layer 1"><rect class="cls-1" width="150" height="300"/><path class="cls-2" d="M124.48,189.52l-.62-2.5-2.39-1.25,2.39-1.07.8-5,3.38-1.35-2.69-2.21-.57-8.74L128,166l-3.4-2v-6.67h-3.84c.53,0-.18-1.73-1.78-2.8,1.25-.53,0-2.52-1.07-4.12.71-1.6-1-2.82-1-2.82l2-2.48-2.68-7.31,1.41-1.63-2.41-5.25a8.85,8.85,0,0,0,2.24-2.75,140.21,140.21,0,0,0-7.85-16.3l-3.22-1.54-.61-4.45-1.81,3.3-2.67-1.27-.58-3.79-1.82,2.64-2-.93s2.11-9.36-3.62-10.57c-2.72-.3-5.43,7.55-5.43,7.55l-1.81,1.33-.3-3.8H83.63l.35-3.2s2.42-.18,1.81-7.13c2.72,1.81,3.93-4.77,2.42-5.68a38.94,38.94,0,0,0-.38-9.93,7.11,7.11,0,0,0-.53-1.8,2.76,2.76,0,0,0,1.17-1.33c-.88.29-2.07-.55-3-1.41-.15-.15-.3-.3-.47-.45-.57-.59-1-1.08-1-1.08a3.76,3.76,0,0,1-.37-2c-2.83,0-3.65.21-3.85.37a4.47,4.47,0,0,0-1.31-3.51c.29,1.88-3.94,2.85-5.8,3.19l-.87.11A1.37,1.37,0,0,1,71.49,65c-2.59.72-5.17,3.12-6.19,4.14q-.27.22-.5.45c-.34-.14-2.32-1.06-2-2.75-2,1.85-2,3.88-.64,7.59-2.49,2.61-.38,10-.38,10-1.51.91-.3,7.57,2.42,5.75-.6,6.94,1.81,7,1.81,7l.35,3.2H64.21l-.3,3.8-1.81-1.49s-2.72-7.77-5.43-7.47C50.93,96.37,53,105.77,53,105.77l-2,1-1.82-2.63-.58,3.79L46,109.16l-1.81-3.3-.61,4.45-3.22,1.54a140.25,140.25,0,0,0-7.85,16.3,8.86,8.86,0,0,0,2.24,2.75l-2.42,5.26,1.41,1.63-2.68,7.32,2,2.5s-1.7,1.25-1,2.86c-1.07,1.6-2.32,3.51-1.07,4-1.6,1.07-2.32,2.8-1.78,2.8H25.58V164l-3.48,2,3.13,1.43-.57,8.74L22,178.36l3.38,1.35.8,5,2.39,1.07L26.14,187l-.62,2.5-2,1.07L25,191.66l-.36,2.85,4.28,2.85.53,2.14,2.14.89s.53,2.67,1.78,2.67,5,.53,5.88-1.78,1.6-5.88.71-6.42c2.14-.53,3-.89,3.21-2.5A6,6,0,0,0,42.1,189l-2.32-1.6s1-2.5-.38-2.32a9.51,9.51,0,0,1,3.18-.89v-3.23l-1.8-.34s2.8-4.28,3.51-7.13a3.73,3.73,0,0,0,2.65-2.14l-.73-3.57-1.43-2.14,1.24-2,3.39,1.07s2.32-5.32,2.14-7.63c1.43-.89.53-4.78.53-4.78h2.09l.89-2.4c1.22,2.19,2.09,3.53,1.6,3.9-1.21.91.3,3-1.21,3.93s1.21,3.32.3,4.83S57,165.29,57,165.29l-3.62.91-.91,6.64-1.67,1.81-4.67,15.7,1.21,1.81-.6,2.95-2.11,1.58L40.06,213l1.51,1.81s-.3,1.21-1.51,4.83c1.51,1.51,3.93,4.23,3.93,4.23l2.11,1.51-2.42,1.21c-2.42,1.21.91,3.32.91,3.32L41,232.62l-.91,7.25-4.23,3.93,3,2.11-.6,10.87-3,3.62,3,2.72-.3,4.83,4.23,1.81-4.23.91-5.15,6.49L29.9,275l.54,5.15-3.77,4.74L28.88,287l-2.11,2.72c-.6,5.74,1.81,10,5.74,10.27s18.72-1.5,19.32-6.63a19.33,19.33,0,0,1,6-11.15c1.81-1.51-.6-7.91-.6-7.91l-3.67-2.94h1.86l3.32-1.22,2.11-4.59s0,.47-2.11-1.95c3-4.53,6.21-21.25,6.21-21.25h3.15l-.87-4.1s-2.8-.57-1.9-4c2.72-.13,7.21-.2,7.21-.2v-8.68h5V234s4.41-.13,7.13,0c.91,3.45-2,4.22-2,4.22l-.82,4.1H85s3.19,16.74,6.21,21.27c-2.11,2.42-2.11,2.18-2.11,2.18l2.11,4.44,3.32,1.12h1.86l-3.67,2.94s-2.42,6.35-.6,7.86a19.4,19.4,0,0,1,6,11.18c.6,5.13,15.4,6.95,19.32,6.65s6.34-4.53,5.74-10.26L121.12,287l2.21-2.11-3.77-4.75.54-5.15-2.89,2.2-5.15-6.49-4.23-.91,4.23-1.81-.3-4.83,3-2.72-3-3.62-.6-10.87,3-2.11-4.23-3.93-.91-7.25-3.62-2.72s3.32-2.11.91-3.32l-2.42-1.21,2.11-1.51s2.42-2.72,3.93-4.23c-1.21-3.62-1.51-4.83-1.51-4.83l1.51-1.81-4.53-16.3-2.11-1.58-.6-2.95,1.21-1.81-4.67-15.7-1.67-1.81-.91-6.64L93,165.29s2.11-1.21,1.21-2.72,1.81-3.93.3-4.83,0-3-1.21-3.93c-.49-.37.38-1.71,1.6-3.9l.89,2.4h2.09s-.89,3.89.53,4.78c-.18,2.32,2.14,7.63,2.14,7.63l3.39-1.07,1.25,2-1.43,2.14-.72,3.57a3.76,3.76,0,0,0,2.66,2.14c.71,2.85,3.57,7.13,3.57,7.13l-1.72.34v3.23a9.41,9.41,0,0,1,3.1.89c-1.43-.18-.44,2.32-.44,2.32l-2.33,1.6a6,6,0,0,0-1.07,3.39c.18,1.6,1.07,2,3.21,2.5-.89.53-.18,4.1.71,6.42s4.63,1.78,5.88,1.78,1.78-2.67,1.78-2.67l2.14-.89.53-2.14,4.28-2.85-.36-2.85,1.43-1.07Z"/><g class="cls-3"><path class="cls-4" d="M61.79,84.39a34.78,34.78,0,0,1-.27-5.62c1.22,1.79,2.11,1.62,2.11,1.62s-3-3.57-1.06-5.44a9.22,9.22,0,0,0,3.65,1.46s-4.55-1.95-4.38-5,2.52-.89,2.52-.89l-.89,1.79s3.17-5,6.9-5.93A29.9,29.9,0,0,0,73,68.3a4.53,4.53,0,0,1-1.14-1.87c-.16-.89,1.22-2.76,1.22-2.76l-1.38-1.95L56,64l-5.93,4.63,3.57,11.2Z"/><path class="cls-4" d="M62.83,85.26s-.2-.93-1-.87-.92,2.82-.92,2.82l.89,3a1.9,1.9,0,0,0,2.44-.07c-1.69.63-2.85-1.72-2.52-3.42S62.83,85.26,62.83,85.26Z"/><path class="cls-4" d="M64.53,85.91l-.32,4.23L63.15,95.9l3.23,5,1.4-3.9s-3-.81-3-2.6S64.85,86.81,64.53,85.91Z"/><path class="cls-4" d="M62.1,102.79s-3.28-7.49-5.5-6.86c-.84.53-3.89,4.95-.74,11.68-.95.42-2,.95-2,.95L53,105.81,48,97.3,51,91.72l6.53-1.47,3.58,2.84Z"/><path class="cls-4" d="M49.26,104.1l1,4.57s-.93.86-1.61-.78c-.87-2.13-.18-6.48-.18-6.48Z"/><path class="cls-4" d="M44.2,105.86l.9,5.28a1.15,1.15,0,0,1-1.52-.83,23.4,23.4,0,0,0-1.15-3.26Z"/><polygon class="cls-4" points="46.01 109.16 47.18 110.09 48.68 107.89 46.01 109.16"/><polygon class="cls-4" points="51.08 106.74 52.58 107.82 53.18 106.3 53.04 105.81 51.08 106.74"/><polygon class="cls-4" points="43.58 110.31 40.36 111.85 41.77 112.96 43.58 110.31"/><path class="cls-4" d="M40.36,111.85l4.74,5.3-4.58-3.66-6.66,13.68s1.62,3.89,9.86,7.35a87.7,87.7,0,0,1-9-3.62l-3.13-1.33L30,126.24l3.86-7.78,5.14-8.7Z"/><path class="cls-4" d="M34.75,130.9l-1,4.66,4.5,5.31a36.6,36.6,0,0,1-4.5-3.09,25.24,25.24,0,0,1-3.83-4.11l1.47-2.94Z"/><path class="cls-4" d="M33.74,137.79,32.93,145l4.66,6.38a30.63,30.63,0,0,1-4.49-3.72,9.47,9.47,0,0,0-2.71-2.24L27.94,142Z"/><path class="cls-4" d="M33.1,147.62a3.69,3.69,0,0,0,1.38,4.7c-2.29-.33-3.35,2-1,4-2.62-.33-4.17.82-2.94,1.39-.65-.08-1.3-.11-1.3-.11l-3.36-2.67L27,151.26Z"/><path class="cls-4" d="M25.55,157.32h3.61l11.61,6.22-12.1-4.26L26.31,164s1.31.26,1.39,1.16c-1.8.33-5.61.84-5.61.84l.13-7.51Z"/><path class="cls-4" d="M25.23,167.41l2.55,2-1.72-.25L25.49,176a1.15,1.15,0,0,1,1,1.14c-1.63.57-4.5,1.19-4.5,1.19l-4.33-7.08Z"/><polygon class="cls-4" points="25.35 179.72 28.84 181.67 26.55 181.5 26.88 183.79 31.21 186.57 28.54 185.78 24.84 185.1 23.61 181.18 25.35 179.72"/><polygon class="cls-4" points="26.14 187.03 33.58 189.84 28.51 186.9 28.54 185.78 26.14 187.03"/><path class="cls-4" d="M26.14,187l5.48,3.06-5-1.47-.25,1s.82.25.82,1c-1.55-.08-3.65,0-3.65,0l.87-2.47Z"/><polygon class="cls-4" points="24.98 191.66 27.45 193.6 25.57 192.95 25.33 194.09 33.09 199.65 28.9 197.37 21.4 196.71 21.07 194.25 24.98 191.66"/><polygon class="cls-4" points="53.34 166.2 59.51 167.95 54.43 168.12 52.44 172.84 53.34 166.2"/><path class="cls-4" d="M52.41,172.52l5.58,1.8H51.67l8.69,3.36-8.64-.55-5.63,13.15s-.13-7,0-7.47,3.39-9.76,3.39-9.76Z"/><polygon class="cls-4" points="47.3 192.16 48.34 193.52 46.7 195.11 47.3 192.16"/><polyline class="cls-4" points="46.7 195.11 52.06 197.59 45.8 197.08 53.93 201.48 45.97 199.79 40.06 213 37.67 209.27 42.75 195.55 46.14 195.22"/><path class="cls-4" d="M41.57,214.81l2.88,2.59-2.37-.68-1,2.37a19.85,19.85,0,0,0,13.55,6.1,22.28,22.28,0,0,1-8.51.19L39.36,224l-3.73-3.22.85-4.57Z"/><path class="cls-4" d="M44.58,229.9,48,231.12l-4.74,1.69,11.52,2-12.7,1-.68,3.89s2.2.51,2.2,2.2a46.33,46.33,0,0,1-7.77,1.84l-2.39-3.19L38,231.79Z"/><path class="cls-4" d="M38.85,245.91,43.09,247l-2.54.85L40,256.69s1.86.68,2,2a55.61,55.61,0,0,0-6.85,1.68l-4.67-4.05Z"/><polygon class="cls-4" points="38.24 263.12 42.07 264.64 39.53 264.98 39.36 266.85 45.63 270.57 42.17 269.76 32.59 266.85 38.24 263.12"/><path class="cls-4" d="M37.94,270.66l7.69,2.62L39,272.6l-4.4,5.08s1,1.52.51,2.2a62.8,62.8,0,0,1-5.76-5.08l-1.86-7.62Z"/><polygon class="cls-4" points="30.44 280.11 34.45 282.43 30.73 282.09 28.19 284.29 37.5 285.81 28.86 285.64 29.37 287.51 25.48 287 24.29 282.93 28.69 278.53 30.44 280.11"/></g><path class="cls-4" d="M46.71,112.41l-.57,1.87s-.45.57,1,1.13A10.63,10.63,0,0,0,46.71,112.41Z"/><path class="cls-4" d="M51.71,110.75l-.57,1.87s-.45.57,1,1.13A10.63,10.63,0,0,0,51.71,110.75Z"/><path class="cls-4" d="M33.18,165.2l-4.27,1.37,6,.14C34.84,165.2,33.18,165.2,33.18,165.2Z"/><path class="cls-4" d="M33.18,175.76l-4.27,1.37,6,.14C34.84,175.76,33.18,175.76,33.18,175.76Z"/><path class="cls-5" d="M78.16,85.15a10,10,0,0,1,4.35-.52c0,1-1,1.12-2,1.2A3.31,3.31,0,0,1,78.16,85.15Z"/><path class="cls-5" d="M71.84,85.15a10,10,0,0,0-4.35-.52c0,1,1,1.12,2,1.2A3.31,3.31,0,0,0,71.84,85.15Z"/></g></g></svg>