<svg xmlns="http://www.w3.org/2000/svg" viewBox="0 0 86 86"><defs><style>.cls-1{fill:#292331;}.cls-2{fill:none;stroke:#c22032;stroke-miterlimit:10;stroke-width:7px;}</style></defs><title>moneyYes</title><g id="Layer_2" data-name="Layer 2"><g id="Color_Palettes" data-name="Color Palettes"><path class="cls-1" d="M40.39,60.64V45q-7.32-2.09-10.73-6.33a15.87,15.87,0,0,1-3.42-10.29A14.55,14.55,0,0,1,30.1,18.09a15.58,15.58,0,0,1,10.29-4.8V9.6H45.8v3.7a16,16,0,0,1,9.45,4.05,15.63,15.63,0,0,1,4.48,8.94l-9.45,1.23a7.61,7.61,0,0,0-4.48-6v14.6q9,2.43,12.21,6.29a14.88,14.88,0,0,1,3.25,9.91,16.59,16.59,0,0,1-4.09,11.39q-4.09,4.63-11.37,5.68v7H40.39V69.6a17.28,17.28,0,0,1-10.49-4.82q-4-4-5.15-11.39l9.75-1a12.4,12.4,0,0,0,2.24,5.15A10.22,10.22,0,0,0,40.39,60.64Zm0-39.21A7,7,0,0,0,36.88,24a6.57,6.57,0,0,0-1.31,4,6.26,6.26,0,0,0,1.19,3.68,8.28,8.28,0,0,0,3.62,2.74ZM45.8,61.17a7.61,7.61,0,0,0,4.56-2.59,7.3,7.3,0,0,0,1.75-4.87,6.62,6.62,0,0,0-1.47-4.31A9.43,9.43,0,0,0,45.8,46.6Z"/><circle class="cls-2" cx="43" cy="43" r="39.5"/></g></g></svg>