<svg xmlns="http://www.w3.org/2000/svg" viewBox="0 0 86 86"><defs><style>.cls-1{fill:#292331;}.cls-2{fill:none;stroke:#c22032;stroke-miterlimit:10;stroke-width:7px;}</style></defs><title>moneyNo</title><g id="Layer_2" data-name="Layer 2"><g id="Color_Palettes" data-name="Color Palettes"><path class="cls-1" d="M40.22,61.32V45.67q-7.32-2.09-10.73-6.33a15.87,15.87,0,0,1-3.42-10.29,14.55,14.55,0,0,1,3.86-10.29A15.58,15.58,0,0,1,40.22,14v-3.7h5.41V14A16,16,0,0,1,55.08,18,15.63,15.63,0,0,1,59.56,27L50.12,28.2a7.61,7.61,0,0,0-4.48-6v14.6q9,2.43,12.21,6.29A14.88,14.88,0,0,1,61.09,53,16.59,16.59,0,0,1,57,64.42Q52.92,69,45.63,70.09v7H40.22v-6.8a17.28,17.28,0,0,1-10.49-4.82q-4-4-5.15-11.39l9.75-1a12.4,12.4,0,0,0,2.24,5.15A10.22,10.22,0,0,0,40.22,61.32Zm0-39.21a7,7,0,0,0-3.51,2.54,6.57,6.57,0,0,0-1.31,4,6.26,6.26,0,0,0,1.19,3.68A8.28,8.28,0,0,0,40.22,35Zm5.41,39.73a7.61,7.61,0,0,0,4.56-2.59,7.3,7.3,0,0,0,1.75-4.87,6.62,6.62,0,0,0-1.47-4.31,9.43,9.43,0,0,0-4.84-2.78Z"/><circle class="cls-2" cx="43" cy="43" r="39.5"/><path class="cls-2" d="M14.33,15.85c.15-.15,59.47,51.87,59.47,51.87"/></g></g></svg>