<svg xmlns="http://www.w3.org/2000/svg" viewBox="0 0 100 150"><defs><style>.cls-1{fill:none;}.cls-2{fill:#292331;}</style></defs><title>monkIcon</title><g id="Layer_2" data-name="Layer 2"><g id="Layer_1-2" data-name="Layer 1"><rect class="cls-1" width="100" height="150"/><g id="yPOVjh"><path class="cls-2" d="M47.42,145.89l1.51,1.82a13.86,13.86,0,0,0,2.67-2.34,2.38,2.38,0,0,0-.52-2.16c-1.72-1.73-3.73-1.57-5.5.22C41.06,148,35.49,148.56,30.33,145A12.41,12.41,0,0,1,26,129.66c2.61-5.9,7.23-9.78,12.62-12.86,3.24-1.85,6.66-3.4,10.06-5C59.88,106.71,65.59,96.46,65,84.19A22.79,22.79,0,0,0,45.87,62.78c-6.32-1.11-12.06.25-16.61,5.06-4.12,4.37-4.32,9.17-.17,13.47s6.84,6.19,13.27,5.6a22.57,22.57,0,0,0-2-2,13,13,0,0,1-4.11-14.33C36.45,76.35,37.94,81.37,44,84a21.54,21.54,0,0,0-.84-2.31C42.36,80.1,41.4,78.6,40.72,77a5.47,5.47,0,0,1-.07-2.78c1.26,3.25,3,5.9,6.58,7.51l-.61-3.89.34-.19a14.8,14.8,0,0,1,1.94,3.18c.89,2.88,2.87,4.8,5.1,6.57a12.7,12.7,0,0,1,4.62,7.14,24.51,24.51,0,0,1,.32,2.68c-1.25-.54-2.22-.88-3.11-1.36-3.78-2-7.55-1.46-11.42-.19a67.65,67.65,0,0,1-10.88,2.6c1.85-.91,3.74-1.76,5.53-2.78a7.77,7.77,0,0,0,1.62-1.79,11.85,11.85,0,0,0-2.12-1.14c-3.06-.93-6.33-1.38-9.2-2.7-7.83-3.6-12-9.87-12.45-18.55-.12-2.51-1.66-4.24-3.1-6a7.23,7.23,0,0,1-1-8.09,5.34,5.34,0,0,1,.52-.75c-.1,1.51-.27,2.86-.27,4.21s.63,2.69,2.25,2.67,2-1.3,2.12-2.62c.07-.63,0-1.28,0-2.38l1.83,2.83,2.22-5.41L22.91,58c3.18-1.57,6.34-3.11,9.47-4.7,1.92-1,3.84-2,5.67-3.13.5-.31.68-1.14,1-1.73-.56-.28-1.12-.8-1.68-.81-2.68-.06-5.48-.45-8,.16-3.82.93-7.17,0-10.45-1.5-3.51-1.66-6.57-3.92-7.56-8-1.29-5.35-.14-10.48,1.3-16.15.74,2.86,1.28,5.18,2,7.46a19.81,19.81,0,0,0,1.5,3.63c1.66,3.11,3.3,3.78,6.42,2.21a54.2,54.2,0,0,0,6.39-4.21c.85-.59,1.58-1.35,2.64-2.28-.12,1.6-.3,2.91-.31,4.22,0,4.24,1.2,5.57,5.34,5.84,3.51.22,7,.35,10.66.52-.91,1.56-1.88,3-2.57,4.47-.79,1.73-.29,2.38,1.63,2.49.46,0,.92,0,1.38,0,5.39-.08,7.26-2.08,6.77-7.44-.15-1.69-.79-3.34-.9-5-.19-3-.53-6.06,0-9a9,9,0,0,1,3.22-5,128.09,128.09,0,0,1,13-9.19c5.67-3.42,11.62-6.38,17.46-9.52.55-.3,1.14-.51,2-.89-3.44,3.8-6.73,7.26-9.81,10.91A42.9,42.9,0,0,0,75,17.84c-1.26,2.22-.86,2.82,1.5,3.77,3.77,1.51,7.51,3.09,11.26,5-1.46.39-3,.68-4.39,1.18a78.46,78.46,0,0,0-9,3.45C71,33,70.46,35.05,72.86,37.92c2.68,3.2,5.87,6,8.85,8.93.45.44,1,.81,1.86,1.55-2.31-.17-4.1-.4-5.9-.42a30,30,0,0,0-4.9.33c-4.21.66-5.82,3.52-4.12,7.44a28.69,28.69,0,0,0,2.6,4c-3.18,0-6.31-1.77-10-.72a19.54,19.54,0,0,0,1.86,2.29c13,11.52,13.6,37-1.36,50.6-2.79,2.53-6.54,4.07-10,5.82-5.49,2.8-11.14,5.31-16.63,8.11a10.11,10.11,0,0,0-5.78,7.53c-.84,5.07,4.09,10.72,9,10a9.74,9.74,0,0,0,4.14-2c3.2-2.39,8.59-1.68,10.89,1.61a2.82,2.82,0,0,1,.37.69c.69,2-.88,3.11-2,4.11a6.66,6.66,0,0,1-3.86,1.75C46.46,149.56,46.32,147.77,47.42,145.89Zm1.26-59.72-.66.78,3.26,2.64.67-.84Z"/></g></g></g></svg>