<svg xmlns="http://www.w3.org/2000/svg" viewBox="0 0 150 300.35"><defs><style>.cls-1{fill:none;}.cls-2{fill:#011b34;}.cls-3{fill:#fff;}.cls-4{fill:#14446a;}</style></defs><title>orcIcon</title><g id="Layer_2" data-name="Layer 2"><g id="Layer_1-2" data-name="Layer 1"><rect class="cls-1" width="150" height="300"/><path class="cls-2" d="M147.76,171c-1.54-1.84-3.88-2.17-5.25-.75a3.88,3.88,0,0,0-.87,3.1c-.06,0-.08.15-.14.2l-.92,1a1.32,1.32,0,0,0-.34.91,1.07,1.07,0,0,0-.84.32l-.92,1a1.33,1.33,0,0,0-.34.91,1.07,1.07,0,0,0-.84.32l-.92,1a1.34,1.34,0,0,0-.35.91h-.11c-.13-2.36-.22-4.3-.22-4.3l1.27-2-.19-1.89-1.66.21c-.43-5.68-2.59-15.87-2.59-15.87l.7-2.45-.91-2.37-1.55.2-1-2.18.66-1.33-1.22-2-1.52.19a7.58,7.58,0,0,0-.35-3.42c-.62-1.34-1.82-.74-2.58-1.89s0,0-2.28-5.21-1.52-8.67-2.73-11.18c-1.06-2.19-1.6-4.29-4-5.67,0-7.79-2.42-20.9-19-21.8a79.48,79.48,0,0,1-7.25-4.6c3.17-1.32,5.54-5,5.69-12.31-3.51,15.73-10.51,7.63-16,2.78a9.82,9.82,0,0,0,3.58-8.19S80.49,76.94,80,76.67c.12-3.56.49-8.22-3.57-10-.49-3.56-2.21-4.52-3-4.52-1.47-1.37-1.75-1.92-2.73-1.23s-.53-1.1-2.24-1.23c-1.71.14-1.19,1.92-2.18,1.23s-1.19-.14-2.67,1.23c-.74,0-2.46,1-3,4.52-4.05,1.78-3.69,6.44-3.57,10-.49.27-2.83-2.19-2.83-2.19A9.84,9.84,0,0,0,58,82.78c.79.68.61,1.58.69,2.33C51.8,88.59,47.65,92.78,40.38,96.8c-6.17.34-10.37,2.37-13.22,5.2a14.83,14.83,0,0,0-4.56,7.86,31.5,31.5,0,0,0-1.14,10.32c-2.77,1.73-3.07,4-4,6.51-.95,2.64.17,6-1.57,11.45s-1.1,4.23-1.73,5.46-1.89.83-2.37,2.24a7.77,7.77,0,0,0,0,3.47H10.31l-1,2.14.79,1.4-.79,2.46H7.75l-.66,2.28L8,160.09a160.39,160.39,0,0,0-.95,16.24H4.56v1.44l1.9,1.82s.47,4.76.63,8.46,1.19,11.11,2.29,12.17,2.25,1.94,2.89,1.59c.47,1.06,2.55,3.17,3.34,2.12,1.74.71,1.91.71,2.54,1.41a19.79,19.79,0,0,0,3.64,2.12,2.81,2.81,0,0,0,2.53-2.29c0-.26.08-.53.13-.8a2,2,0,0,1,.39.07c1.47.41.61,3.83-.37,5.75s-6,2.33-6,2.33c.49,1.1,5.16,1.23,7.74-.55.25,1.78-3.07,4.93-5.9,5.48,4.42,2.05,9.21-5.48,8.6-3.83s-.86,11.5-.86,11.5-2,4.11-2.46,13a24.36,24.36,0,0,0-1.14,5.09,8.58,8.58,0,0,1-1.76-2c-.21,4.28,1.53,4.5,1.53,4.5l-1.53,1.44.76,2.85.76,1.56c0,.69.08.79.13,1.79h-1l-.66,2.6,3.55,20.4c0,.79,0,1.57,0,2.32-.07.23-.15.67-.23.67H24.61l-6,9.9.73.84a6.58,6.58,0,0,1-2.09,1.44c-1.84.82-3.44,7.4-1.11,8.22s9.65.89,16.41-.2,6-5.31,6-6.41,2.24-1.08,3.22-2.17.86-4.11-.25-6.43,0-5.34,0-7.66,0-5,0-7.47c0-3.39.92-2.67,5.16-8.66,2.62-3.7,3.06-8.06,3.14-11.63l.83-.54v-2.86l-.93-1.47a13.57,13.57,0,0,0,2.67-1.93,7.65,7.65,0,0,1-3.21,0s2.52-.86,3.38-4.66a4.42,4.42,0,0,1-3.71,2.59c-.58-3.72-.47-8.82,3-11.86,3-2.22,4.85-6.87,5.88-10.4a7,7,0,0,0,3.22,3.48c-2.68-5.46,0-7.07,0-7.07s4.39.82,3.9,3.54a5.28,5.28,0,0,0,2.42-4.15c0,.92.22,3.49,3,6.32a10.45,10.45,0,0,1,2.44-6.68s-1.22,4.78,2.2,8a19.54,19.54,0,0,1,0-8s3.42.43,2.68,3l1.37-1.21c.68,3,2.36,9,5.53,12.22-7.62,7-14.54,13.52-17.81,16.91C57.28,253.93,52.44,270,52.44,270s14.7-4.26,23.95-13.86c2.06-2.14,5.18-5.81,9.18-10.23v2.68l1.41.59a21,21,0,0,0,3.58,11.57c4.25,6,5.2,5.27,5.16,8.66,0,2.49,0,5.15,0,7.47s1.11,5.34,0,7.66-1.23,5.34-.25,6.43,3.22,1.08,3.22,2.17-.8,5.31,6,6.41,14.08,1,16.41.21.74-7.39-1.11-8.22a6.52,6.52,0,0,1-2.16-1.49l.67-.8-6-9.9h-1.24c-.08,0-.15-.38-.23-.62,0-1,0-2,0-3l3.42-19.76-.66-2.59h-.9c.06-1,.11-1.31.15-2.12l.62-1.34.76-2.79-1.4-1.28v-.15c.39-.14,1.58-.87,1.4-4.46a8.63,8.63,0,0,1-1.64,1.91,24.22,24.22,0,0,0-1.13-5c-.49-8.9-2.46-13-2.46-13s-.08-3.38-.28-6.51L111,216c1.63,1.3,3.77,2.41,5.82,1.46a9.28,9.28,0,0,1-4.65-2.84L113.5,213c2.34.55,4.83.26,5.19-.53a16.91,16.91,0,0,1-4-.87l4.44-5.28L123,211c.45.53,1.08.69,1.48.28L123,206.73a1.61,1.61,0,0,0,.19-1.74,3,3,0,0,0,.55,0,20.47,20.47,0,0,0,3.4-2.56c.56-.78.71-.8,2.37-1.72.89,1,2.71-1.41,3.08-2.52.66.27,1.66-.75,2.65-1.94.78-.93,1-5.71,1-9.51l.34-.35a1.32,1.32,0,0,0,.34-.91,1.07,1.07,0,0,0,.84-.32l.92-1a1.34,1.34,0,0,0,.34-.91,1.07,1.07,0,0,0,.84-.32l.92-1a1.34,1.34,0,0,0,.35-.91,1.06,1.06,0,0,0,.84-.32l.92-1a1.34,1.34,0,0,0,.35-.91,1.05,1.05,0,0,0,.84-.32l.92-1c.06-.06.18,0,.22-.1a3,3,0,0,0,2.83-.75C149.42,175.42,149.3,172.8,147.76,171ZM24.27,199l0,0S24.26,199,24.27,199Zm2,2.44a2.7,2.7,0,0,0-1.46.59c.15-.84.26-1.43.26-1.43a4.06,4.06,0,0,0-.58-1.47C25.31,199.47,26.4,200.22,26.32,201.4Zm16.94-42.86-1.17,4-1.54,0v2l1.66.82a20.74,20.74,0,0,1-2.68,2.6c-.74.41-3.36-1.51-3.48-4-2.46,3.42,2.38,5.48,1.76,7.53-1.47-.55-4.28,3.15-4.28,3.15s3.45-1.23,2.59,1-5.89,3.42-5.89,3.42a7.8,7.8,0,0,0,5-.55c-3.93,5.2-7.74,3-7.74,3s.61,2.24,4.05,1.42c-.25,1.37-2.33,3.15-4.3,3.87,1.84,1.54,4.55-2,4.91-1.81s-.86,3.7-.86,3.7-2.09,2.19-3.93.68c-.25,1.37,2,4.24,2,4.24s-1.11-1.23-2.09-.41c1.11,1.92-.74,5.48-.74,5.48l-1.21.06.56-.1L27.18,196a5.48,5.48,0,0,0-1.42-3.35c-1.42-1.59-1.27-7.23-3.48-7.41L20.54,182l1.74-.55.16-1.56-1.22-.88s1.38-3.17,3.75-4.41a14.63,14.63,0,0,0,6.8-9.7,7.29,7.29,0,0,0,1.9-3.88l-1.74-.71.32-2.47,1.42-1.23L33.19,154l-1.9-.18s-.95-2.64.32-4.23,5.06-1.41,6.64-4.76a22.53,22.53,0,0,0,1.14-3.41,19.41,19.41,0,0,0,2.16,2.46c-.86,1-.49,1.92-.12,5.2-1.35,3.42,1.88,6.44,1.88,6.44l-1.4.41-.14,2.19Zm69,43.45a2.7,2.7,0,0,0-1.46-.59c-.09-1.36,1.4-2.16,2.1-2.46l1.18,1.41ZM121,183c-2.18.46-1.45,6-2.7,7.8a5.59,5.59,0,0,0-1.07,3.51l.43.7-1.48,1.54-.44-.53a1.23,1.23,0,0,0-1.73,0l-3.85-2.12a1.4,1.4,0,0,0,0,1.77l2.59,3.1-2.21-.11s-1.84-3.56-.74-5.48c-1-.82-2.09.41-2.09.41s2.21-2.88,2-4.24c-1.84,1.51-3.93-.68-3.93-.68s-1.23-3.56-.86-3.7,3.07,3.35,4.91,1.81c-2-.72-4.05-2.5-4.3-3.87,3.44.82,4.05-1.42,4.05-1.42s-3.81,2.24-7.74-3a7.79,7.79,0,0,0,5,.55s-5-1.23-5.9-3.42,2.58-1,2.58-1-2.83-3.7-4.3-3.15c-.61-2.05,4.18-4.11,1.72-7.53-.12,2.46-2.83,4.38-3.56,4a30.64,30.64,0,0,1-3-2.6l1.15-.82v-2l-1,0-.74-4,1.53-.41-.11-2.19-1.39-.41s3.24-3,1.89-6.44c.37-3.29.74-4.24-.12-5.2a19.47,19.47,0,0,0,3.23-4.07,31.4,31.4,0,0,0,2.17,5.11c1.91,3.13,5.67,2.47,7.09,3.88s.75,4.16.75,4.16l-1.87.42-.2,2.69,1.54,1,.57,2.41-1.66.92a7.08,7.08,0,0,0,2.28,3.61,14.13,14.13,0,0,0,7.75,8.77c2.48.92,4.18,3.9,4.18,3.9l-1.12,1,.32,1.53,1.79.33Zm25.93-7.51a2.06,2.06,0,0,1-3.07-.45,2.67,2.67,0,0,1-.18-3.45,2.06,2.06,0,0,1,3.08.44A2.67,2.67,0,0,1,146.93,175.5Z"/><path class="cls-3" d="M76.59,80.91A6.65,6.65,0,0,0,75.45,80,17.38,17.38,0,0,1,72,81.79,3.61,3.61,0,0,0,76.59,80.91Z"/><path class="cls-3" d="M65.08,81.79A17.38,17.38,0,0,1,61.67,80a6.65,6.65,0,0,0-1.14.89A3.61,3.61,0,0,0,65.08,81.79Z"/><path class="cls-2" d="M147.76,171c-1.54-1.84-3.88-2.17-5.25-.75a3.88,3.88,0,0,0-.87,3.1c-.06,0-.08.15-.14.2l-.92,1a1.32,1.32,0,0,0-.34.91,1.07,1.07,0,0,0-.84.32l-.92,1a1.33,1.33,0,0,0-.34.91,1.07,1.07,0,0,0-.84.32l-.92,1a1.34,1.34,0,0,0-.35.91h-.11c-.13-2.36-.22-4.3-.22-4.3l1.27-2-.19-1.89-1.66.21c-.43-5.68-2.59-15.87-2.59-15.87l.7-2.45-.91-2.37-1.55.2-1-2.18.66-1.33-1.22-2-1.52.19a7.58,7.58,0,0,0-.35-3.42c-.62-1.34-1.82-.74-2.58-1.89s0,0-2.28-5.21-1.52-8.67-2.73-11.18c-1.06-2.19-1.6-4.29-4-5.67,0-7.79-2.42-20.9-19-21.8a79.48,79.48,0,0,1-7.25-4.6c3.17-1.32,5.54-5,5.69-12.31-3.51,15.73-10.51,7.63-16,2.78a9.82,9.82,0,0,0,3.58-8.19S80.49,76.94,80,76.67c.12-3.56.49-8.22-3.57-10-.49-3.56-2.21-4.52-3-4.52-1.47-1.37-1.75-1.92-2.73-1.23s-.53-1.1-2.24-1.23c-1.78.6-2.06,6.22-2.06,6.22s-.53-.49-1.16-4.06c-1.26.22-1.8,5.62-1.8,5.62a12.12,12.12,0,0,1-.69-4.06c-.74-.27-2.09,3.25-2.09,3.25s.05,3.48,1.61,4.43a4.35,4.35,0,0,1-3.05-1.74s-1.94,2.21-2.13,7.31a1.67,1.67,0,0,1-1.78,0c.5,2,1.71,4.53,3,4.87a4.75,4.75,0,0,1-.46-4s1.19,5.23,2,5.79c0,2,.69,7,2,7.48-2.27-.32-3.23-4-3.23-4a41.48,41.48,0,0,1-16.3,9.9c7.39.55,14.35.63,14.35.63S44.71,99,42.94,98.74s-22.24,3.25-18,25.1a5.93,5.93,0,0,1-3.13-2.45s-4.33,6-3.34,10.77c.5,2.22-.43,5.46-.85,7,2.7-4.12,4-6.65,4-6.65s-4,10.21-5.19,11.72c1.07,1,1.35,1.43,1.49,2-2.06-1.11-4.9-1.19-5,1a3.19,3.19,0,0,0,1.42,3,52.39,52.39,0,0,0,8.88,2.69,47,47,0,0,1-11.65-2.14l-2.23.75.79,1.24L9.31,155a41.39,41.39,0,0,0,12.24,3.2c-8.22.27-12.79-1.6-12.79-1.6l-1.66.87L8,159.77a43.91,43.91,0,0,0,11.2,1.55,43.51,43.51,0,0,1-9.63.5s-.53,3.74-.93,14.21a82.08,82.08,0,0,1,8.94,1.18l-9.75.36-1,2s.26,4.76.42,8.46,1.08,11.11,2.19,12.17,2.2,1.94,2.83,1.59c.47,1.06,2.52,3.17,3.32,2.12,1.74.71,1.89.71,2.53,1.41a19.79,19.79,0,0,0,3.64,2.12,2.81,2.81,0,0,0,2.53-2.29l.12-.8a2,2,0,0,1,.39.07c1.47.41.61,3.83-.37,5.75s-6,2.33-6,2.33c.49,1.1,5.16,1.23,7.74-.55.25,1.78-3.07,4.93-5.9,5.48,4.42,2.05,9.21-5.48,8.6-3.83,0,0,.09,9.06,1.2,12-1.84,2.67-3.32,8.73-2.76,10.37A20.28,20.28,0,0,1,31,228.91s-4.05,9.45-2.4,13.56a11.85,11.85,0,0,0-2.3-2.88s-1.5,2.77-.89,4.21c-1,.92-2.06-.4-2.75-2.61-.21,4.28,1.53,4.5,1.53,4.5l-1.53,1.44.76,2.85.76,1.56c0,.69.08.79.13,1.79h-.17l9.15,3.81L24,254.78l-.69,1.6,2.89,20c0,.79,0,1.53,0,2.28-.07.23-.15.63-.23.63H24.61l7.62,1H25.89l-7.32,8.92.73.83a6.57,6.57,0,0,1-2.09,1.43c-1.84.82-3.44,7.4-1.11,8.22s9.65.89,16.41-.2,6-5.31,6-6.41,2.24-1.08,3.22-2.17.86-4.11-.25-6.43,0-5.34,0-7.66,0-5,0-7.47c0-3.39.92-2.67,5.16-8.66,2.62-3.7,3.06-8.06,3.14-11.63l.83-.54v-2.86l-.93-1.47a13.57,13.57,0,0,0,2.67-1.93,7.65,7.65,0,0,1-3.21,0s2.52-.86,3.38-4.66a4.42,4.42,0,0,1-3.71,2.59c-.58-3.72-.47-8.82,3-11.86,3-2.22,4.85-6.87,5.88-10.4a7,7,0,0,0,3.22,3.48c-2.68-5.46,0-7.07,0-7.07s4.39.82,3.9,3.54a5.28,5.28,0,0,0,2.42-4.15c0,.92.22,3.49,3,6.32a10.45,10.45,0,0,1,2.44-6.68s-1.22,4.78,2.2,8a19.54,19.54,0,0,1,0-8s3.42.43,2.68,3l1.37-1.21c.68,3,2.36,9,5.53,12.22L106.83,207s-34.3,34.58-40.17,41a58.91,58.91,0,0,0-9.16,13.65l23.38-20.42L52.44,270s14.7-4.26,23.95-13.86c2.06-2.14,5.18-5.81,9.18-10.23v2.68l1.41.59a21,21,0,0,0,3.58,11.57c4.25,6,5.2,5.27,5.16,8.66,0,2.49,0,5.15,0,7.47s1.11,5.34,0,7.66-1.23,5.34-.25,6.43,3.22,1.08,3.22,2.17-.8,5.31,6,6.41,14.08,1,16.41.21.74-7.39-1.11-8.22a6.52,6.52,0,0,1-2.16-1.49l.67-.8-6-9.9h-1.24c-.08,0-.15-.38-.23-.62,0-1,0-2,0-3l3.42-19.76-.66-2.59h-.9c.06-1,.11-1.31.15-2.12l.62-1.34.76-2.79-1.4-1.28v-.15c.39-.14,1.58-.87,1.4-4.46a8.63,8.63,0,0,1-1.64,1.91,24.22,24.22,0,0,0-1.13-5c-.49-8.9-2.46-13-2.46-13s-.08-3.38-.28-6.51L111,216c1.63,1.3,3.77,2.41,5.82,1.46a9.28,9.28,0,0,1-4.65-2.84L113.5,213c2.34.55,4.83.26,5.19-.53a16.91,16.91,0,0,1-4-.87l4.44-5.28L123,211c.45.53,1.08.69,1.48.28L123,206.73a1.61,1.61,0,0,0,.19-1.74,3,3,0,0,0,.55,0,20.47,20.47,0,0,0,3.4-2.56c.56-.78.71-.8,2.37-1.72.89,1,2.71-1.41,3.08-2.52.66.27,1.66-.75,2.65-1.94.78-.93,1-5.71,1-9.51l.34-.35a1.32,1.32,0,0,0,.34-.91,1.07,1.07,0,0,0,.84-.32l.92-1a1.34,1.34,0,0,0,.34-.91,1.07,1.07,0,0,0,.84-.32l.92-1a1.34,1.34,0,0,0,.35-.91,1.06,1.06,0,0,0,.84-.32l.92-1a1.34,1.34,0,0,0,.35-.91,1.05,1.05,0,0,0,.84-.32l.92-1c.06-.06.18,0,.22-.1a3,3,0,0,0,2.83-.75C149.42,175.42,149.3,172.8,147.76,171ZM24.27,199l0,0S24.26,199,24.27,199Zm2,2.44a2.7,2.7,0,0,0-1.46.59c.15-.84.26-1.43.26-1.43a4.06,4.06,0,0,0-.58-1.47C25.31,199.47,26.4,200.22,26.32,201.4Zm16.94-42.86-1.17,4-1.54,0v2l1.66.82a20.74,20.74,0,0,1-2.68,2.6c-.74.41-3.36-1.51-3.48-4-2.46,3.42,2.38,5.48,1.76,7.53-1.47-.55-4.28,3.15-4.28,3.15s3.45-1.23,2.59,1-5.89,3.42-5.89,3.42a7.8,7.8,0,0,0,5-.55c-3.93,5.2-7.74,3-7.74,3s.61,2.24,4.05,1.42c-.25,1.37-2.33,3.15-4.3,3.87,1.84,1.54,4.55-2,4.91-1.81s-.86,3.7-.86,3.7-2.09,2.19-3.93.68c-.25,1.37,2,4.24,2,4.24s-1.11-1.23-2.09-.41c1.11,1.92-.74,5.48-.74,5.48l-1.21.06.56-.1L27.18,196a5.48,5.48,0,0,0-1.42-3.35c-1.42-1.59-1.27-7.23-3.48-7.41L20.54,182l1.74-.55.16-1.56-1.22-.88s1.38-3.17,3.75-4.41a14.63,14.63,0,0,0,6.8-9.7,7.29,7.29,0,0,0,1.9-3.88l-1.74-.71.32-2.47,1.42-1.23L33.19,154l-1.9-.18s-.95-2.64.32-4.23,5.06-1.41,6.64-4.76a22.53,22.53,0,0,0,1.14-3.41,19.41,19.41,0,0,0,2.16,2.46c-.86,1-.49,1.92-.12,5.2-1.35,3.42,1.88,6.44,1.88,6.44l-1.4.41-.14,2.19ZM76.59,80.91a3.61,3.61,0,0,1-4.54.89A17.38,17.38,0,0,0,75.45,80,6.65,6.65,0,0,1,76.59,80.91Zm-11.51.89a3.61,3.61,0,0,1-4.54-.89A6.65,6.65,0,0,1,61.67,80,17.38,17.38,0,0,0,65.08,81.79ZM112.29,202a2.7,2.7,0,0,0-1.46-.59c-.09-1.36,1.4-2.16,2.1-2.46l1.18,1.41ZM121,183c-2.18.46-1.45,6-2.7,7.8a5.59,5.59,0,0,0-1.07,3.51l.43.7-1.48,1.54-.44-.53a1.23,1.23,0,0,0-1.73,0l-3.85-2.12a1.4,1.4,0,0,0,0,1.77l2.59,3.1-2.21-.11s-1.84-3.56-.74-5.48c-1-.82-2.09.41-2.09.41s2.21-2.88,2-4.24c-1.84,1.51-3.93-.68-3.93-.68s-1.23-3.56-.86-3.7,3.07,3.35,4.91,1.81c-2-.72-4.05-2.5-4.3-3.87,3.44.82,4.05-1.42,4.05-1.42s-3.81,2.24-7.74-3a7.79,7.79,0,0,0,5,.55s-5-1.23-5.9-3.42,2.58-1,2.58-1-2.83-3.7-4.3-3.15c-.61-2.05,4.18-4.11,1.72-7.53-.12,2.46-2.83,4.38-3.56,4a30.64,30.64,0,0,1-3-2.6l1.15-.82v-2l-1,0-.74-4,1.53-.41-.11-2.19-1.39-.41s3.24-3,1.89-6.44c.37-3.29.74-4.24-.12-5.2a19.47,19.47,0,0,0,3.23-4.07,31.4,31.4,0,0,0,2.17,5.11c1.91,3.13,5.67,2.47,7.09,3.88s.75,4.16.75,4.16l-1.87.42-.2,2.69,1.54,1,.57,2.41-1.66.92a7.08,7.08,0,0,0,2.28,3.61,14.13,14.13,0,0,0,7.75,8.77c2.48.92,4.18,3.9,4.18,3.9l-1.12,1,.32,1.53,1.79.33Zm25.93-7.51a2.06,2.06,0,0,1-3.07-.45,2.67,2.67,0,0,1-.18-3.45,2.06,2.06,0,0,1,3.08.44A2.67,2.67,0,0,1,146.93,175.5Z"/><path class="cls-4" d="M62.33,71.1c-1.56-1-1.61-4.43-1.61-4.43-4.05,1.78-3.69,6.44-3.57,10,.19-5.09,2.13-7.31,2.13-7.31A4.35,4.35,0,0,0,62.33,71.1Z"/><path class="cls-4" d="M23.19,152.82a52.39,52.39,0,0,1-8.88-2.69,3.19,3.19,0,0,1-1.42-3c.14-2.14,3-2.06,5-1-.14-.55-.43-1-1.49-2,1.14-1.5,5.19-11.72,5.19-11.72s-1.35,2.53-4,6.65c.43-1.5,1.35-4.75.85-7-1-4.75,3.34-10.77,3.34-10.77a5.93,5.93,0,0,0,3.13,2.45C20.7,102,41.16,98.5,42.94,98.74s13.71-1.35,13.71-1.35-7-.08-14.35-.63a41.48,41.48,0,0,0,16.3-9.9s1,3.64,3.23,4c-1.28-.48-2-5.5-2-7.48-.78-.55-2-5.79-2-5.79a4.75,4.75,0,0,0,.46,4c-1.28-.33-2.49-2.91-3-4.87a1.67,1.67,0,0,0,1.78,0c-.49.27-2.83-2.19-2.83-2.19A9.84,9.84,0,0,0,58,82.78c.79.68.61,1.58.69,2.33C51.8,88.59,47.65,92.78,40.38,96.8c-6.17.34-10.37,2.37-13.22,5.2a14.83,14.83,0,0,0-4.56,7.86,31.5,31.5,0,0,0-1.14,10.32c-2.77,1.73-3.07,4-4,6.51-.95,2.64.17,6-1.57,11.45s-1.1,4.23-1.73,5.46-1.89.83-2.37,2.24a7.77,7.77,0,0,0,0,3.47H10.31l-1,2.14,2.23-.76A47.44,47.44,0,0,0,23.19,152.82Z"/><path class="cls-4" d="M62.81,63.42a12.12,12.12,0,0,0,.69,4.06s.53-5.41,1.8-5.62c.63,3.57,1.16,4.06,1.16,4.06s.28-5.62,2.06-6.22c-1.71.14-1.19,1.92-2.18,1.23s-1.19-.14-2.67,1.23c-.74,0-2.46,1-3,4.52C60.72,66.67,62.07,63.15,62.81,63.42Z"/><path class="cls-4" d="M17.62,177.19A82.08,82.08,0,0,0,8.67,176c.4-10.47.93-14.21.93-14.21a43.51,43.51,0,0,0,9.63-.5A52.06,52.06,0,0,1,8,160a163,163,0,0,0-.95,16.33H4.56v1.44l1.9,1.82,1.19-2Z"/><path class="cls-4" d="M25.44,243.8c-.61-1.44.89-4.21.89-4.21a11.85,11.85,0,0,1,2.3,2.88C27,238.36,31,228.91,31,228.91A20.28,20.28,0,0,0,27.34,236c-.55-1.64.92-7.7,2.76-10.37-1.11-3-1.2-12-1.2-12-.61,1.64-.86,11.5-.86,11.5s-2,4.11-2.46,13a24.36,24.36,0,0,0-1.14,5.09,8.58,8.58,0,0,1-1.76-2C23.38,243.4,24.48,244.73,25.44,243.8Z"/><polygon class="cls-4" points="24.02 254.89 33.33 257.13 24.18 253.32 23.33 253.32 22.67 255.93 26.22 276.33 23.33 256.38 24.02 254.89"/><path class="cls-4" d="M57.5,261.61A58.91,58.91,0,0,1,66.66,248c5.87-6.41,40.17-41,40.17-41L84.34,227.42c-7.62,7-14.54,13.52-17.81,16.91C57.28,253.93,52.44,270,52.44,270l28.44-28.77Z"/><path class="cls-4" d="M21.54,158.34a45.75,45.75,0,0,1-12.24-3H7.75l-.66,2.28,1.66-.87S13.33,158.61,21.54,158.34Z"/><polygon class="cls-4" points="32.22 280.32 24.61 279.4 18.56 289.23 25.89 280.32 32.22 280.32"/></g></g></svg>