<svg xmlns="http://www.w3.org/2000/svg" viewBox="0 0 100 150"><defs><style>.cls-1,.cls-3{fill:none;}.cls-2{fill:#292331;}.cls-3{stroke:#292331;stroke-miterlimit:10;stroke-width:0.51px;}</style></defs><title>rangerIcon</title><g id="Layer_2" data-name="Layer 2"><g id="Layer_1-2" data-name="Layer 1"><rect class="cls-1" width="100" height="150"/><path class="cls-2" d="M32.26,72.75l.19.11a.42.42,0,0,0,.57-.16l.3-.55a.41.41,0,0,0-.13-.54,84,84,0,0,0,6.51-12.12l.07,0a.42.42,0,0,0,.57-.16l.3-.55a.42.42,0,0,0-.16-.57l-.34-.18c2.34-8.12,2-16.53,6.53-24.41C57.16,15.28,82.11,19.74,92.08,1.56l-.45-.25c-6,11-22.9,12.88-33.06,17.62-17.8,8.31-17.69,20-21.24,34-.25,1-.6,2-1,3l-.14-.08a.42.42,0,0,0-.57.16l-.3.55a.42.42,0,0,0,.16.57l.34.18v0l-6.6,12-.34-.19a.42.42,0,0,0-.57.16L28,70a.42.42,0,0,0,.16.57l.24.13c-.84,1.1-1.67,2.2-2.53,3.12C15.86,84.54,5.86,90.89,8.29,110.6c1.39,11.26,8.78,26.65,2.65,37.84l.45.25c10.15-18.5-7-37.27,3.06-56.32C18.89,83.94,26.54,79.55,32.26,72.75Z"/><line class="cls-3" x1="92.08" y1="1.56" x2="10.94" y2="148.44"/><g id="_37JegI" data-name="37JegI"><path class="cls-2" d="M18.78,55.42l-.24,3.31-6-7.68,9.61,1.8-2.79,1.73a5.12,5.12,0,0,0,.51.42L49.25,72.9c6.35,3.86,12.71,7.7,19,11.6a2.48,2.48,0,0,0,2.55.37c1.77-.82,3.26-.4,4.85.69,2.63,1.79,5.43,3.34,8.4,5.13L79.85,92l.73,4.24c-.42-.22-.72-.36-1-.53C76.7,94,73.84,92.2,70.95,90.49a2.18,2.18,0,0,1-1.29-1.84,4.82,4.82,0,0,0-2.84-4.14c-5.41-3.09-10.71-6.39-16-9.63Q35.27,65.44,19.77,56C19.5,55.8,19.22,55.66,18.78,55.42Z"/></g></g></g></svg>