<svg xmlns="http://www.w3.org/2000/svg" viewBox="0 0 100 150"><defs><style>.cls-1{fill:none;}.cls-2{fill:#292331;}</style></defs><title>rogueIcon</title><g id="Layer_2" data-name="Layer 2"><g id="Layer_1-2" data-name="Layer 1"><rect class="cls-1" width="100" height="150"/><g id="Yg7gjp.tif"><path class="cls-2" d="M97,39.75a20.47,20.47,0,0,1,2.94,8.46,38.89,38.89,0,0,1,.08,4.43,4.13,4.13,0,0,1-.27,1.24c-.49,1.48-1.4,1.88-2.93,1.26a3.24,3.24,0,0,0,.1.44,2.4,2.4,0,0,1-1.09,3.25,10.46,10.46,0,0,1-5.31,1.29,21.81,21.81,0,0,1-11.42-2.68c-.16-.09-.33-.15-.56-.26l-.81.81-61,61a3.24,3.24,0,0,1-3.94.84A3.28,3.28,0,0,1,12,114.5c.85-.9,1.75-1.76,2.67-2.68L10,107.19,7.16,110,0,102.87l5.34-5.34,3.5,3.5,1.48-1.48-3.5-3.5,5.33-5.33,7.14,7.14L17,100.13l4.62,4.62c.24-.21.48-.42.71-.64q25.52-25.52,51.06-51a1,1,0,0,0,.26-1.43,23,23,0,0,1-2.35-13.19,9.22,9.22,0,0,1,.57-2.19c.73-1.89,1.63-2.35,3.58-1.92-.55-1.46-.26-2.06,1.3-2.45a15.43,15.43,0,0,1,6.14,0A20.09,20.09,0,0,1,91.79,35c.46.33,1.08.73,1.19,1.2.35,1.51,1.55,1.84,2.71,2.31ZM83.83,51.86A13.07,13.07,0,0,0,90,54.68a5.23,5.23,0,0,0,5.22-2.24c1.17-1.72.62-3.46-.38-5.09a13.41,13.41,0,0,0-5.27-4.56,3,3,0,0,1-1.12-1.06A15.81,15.81,0,0,0,84,36.57c-3.13-2.21-6.63-.9-7.21,2.78-.47,2.95.87,5.37,2.52,7.8.44-.44.79-.81,1.16-1.16a3.26,3.26,0,0,1,4.77,0A3.2,3.2,0,0,1,85,50.67Z"/></g><g id="VEpvfQ"><path class="cls-2" d="M7.93,30c2.45-.94,3.89-.38,6.15,1.57,2.49,2.14,3.39,4.7,5,7.1a14.43,14.43,0,0,0,4.43,4.12C29,46.18,34.26,49.72,38,55.14c1.2,1.75,2.27,4.39,3.88,4.83s3.81-1.64,5.86-2.06a19.6,19.6,0,0,1,6.21,0c.56.07,1.35,1.43,1.31,2.15s-1,1.44-1.74,1.75c-2,.86-4.16,1.5-6.89,2.44C64,82.49,83,98.43,95.49,120.4,73.6,107.94,57.69,89,39.44,71.71c-.86,2.22-1.49,4.1-2.33,5.88a17.28,17.28,0,0,1-1.95,2.69c-.94-.9-2.7-1.82-2.68-2.7a18.08,18.08,0,0,1,1.45-7c1.88-4.14,2.07-4-1.86-6.43C26,60.44,21.64,55,18.26,48.86c-1.69-3.08-4.1-4.78-7.2-6.3C8.58,41.35,6.52,39,4.72,36.78c-.59-.72.24-2.6.41-3.95Z"/></g></g></g></svg>