<svg xmlns="http://www.w3.org/2000/svg" viewBox="0 0 137.31 154.09"><defs><style>.cls-1{fill:#fff;}</style></defs><title>saveIconWht</title><g id="Layer_2" data-name="Layer 2"><g id="Second_Draft" data-name="Second Draft"><path class="cls-1" d="M51,69.4A150.77,150.77,0,0,1,27.67,84.12L38.26,97c8-4,49-25.89,48.07-53.69h.11L76.31,30.65C75.77,43.55,67.07,56.89,51,69.4Z"/><path class="cls-1" d="M64,84.3a151.34,151.34,0,0,1-23.78,15Q51,112.43,61.92,125.49c1,1.15,3.85,1.68,5.4,1.16a80.18,80.18,0,0,0,10.85-5c15.83-8.08,27.43-20.27,35.18-36.24,1.83-3.77,1.83-6.67-1.12-10.28Q100.65,61,89.22,46.71C88.18,59.22,79.55,72.14,64,84.3Z"/><path class="cls-1" d="M73.33,28.47l1.2,0Q65.48,17.14,56.42,5.86C54.94,4,53.36,2.27,51.42,0,45.3,27.91,30.11,46.13,2,52.07a7.88,7.88,0,0,0,.4,1.4L25.71,81.74C34.69,77.23,74.23,55.79,73.33,28.47Z"/><path class="cls-1" d="M59.75,127.33Q49.42,114.72,39,102.14v23.47l23.09,28.49c0-8.25.16-14.91-.11-21.55A9.61,9.61,0,0,0,59.75,127.33Z"/><path class="cls-1" d="M23.22,82.94,4.89,60.72c-1.27-1.54-2.65-3-4.75-5.37,0,6.79-.38,12.15.14,17.42a18.18,18.18,0,0,0,3.26,8.85C9.82,89.88,16.48,97.85,23,105.89V83Z"/><path class="cls-1" d="M26,86.36v23.22l10,12.33V98.49Z"/><path class="cls-1" d="M67.58,133.19c26.11-9.08,46.91-25.28,63.62-47.11,2.21-2.89,2-4.47-.31-7.09-17.07-19.33-34-38.8-50.93-58.23L68.89,8.06l-3.66,4.5c16,20,31.64,40.12,48.09,59.52,5,5.85,4.87,10.5,1.57,16.31-.25.43-.51.86-.74,1.3-9.88,19.15-25.89,31.24-45.29,39.48a27.7,27.7,0,0,0-4.38,2.92l1.17,1.5A14.69,14.69,0,0,0,67.58,133.19Z"/><path class="cls-1" d="M130.47,120C111.83,131,91.32,137.42,71,144.3c-6.61,2.24-6.66,2.1-5.67,9.29.31,0,.67.21.94.11Q98.92,142,131.53,130.26a4,4,0,0,0,2.07-2.84c.29-2.74.1-5.53.1-8.89C132.19,119.21,131.28,119.52,130.47,120Z"/><path class="cls-1" d="M128.46,93.29c-17.65,20.09-37.7,36.26-63.5,44.29,27.05-6.28,51.71-17.14,72.35-36.45Z"/><path class="cls-1" d="M65.26,142.33c24.31-5.63,47.28-14.4,68.23-28.55a8.41,8.41,0,0,0-1-1.77,15.91,15.91,0,0,0-2.05-1.57C111.1,126.17,88.48,134.85,65.26,142.33Z"/></g></g></svg>