<svg xmlns="http://www.w3.org/2000/svg" viewBox="0 0 76.81 87.72"><defs><style>.cls-1{fill:#292331;}</style></defs><title>settingsIcon</title><g id="Layer_2" data-name="Layer 2"><g id="Second_Draft" data-name="Second Draft"><g id="jvrii8"><path class="cls-1" d="M0,55.13c.42,0,.84-.11,1.26-.11l16.27-.2,6.8-.08H26c0-.67,0-1.27,0-1.87,0-.41.07-.67.42-.7.61,0,1.22-.07,1.83-.12.78-.07,1.56-.18,2.34-.25,1-.08,1.91-.13,2.86-.19,0,0,.1,0,.13,0,1,.72,2,.32,3,.35,3.3.1,6.61.05,9.91,0l11.14,0,7.61-.07,10.2-.08c.35,0,.69,0,1,.05s.41.2.3.57a.64.64,0,0,0,0,.11,3.59,3.59,0,0,1-2,2.87c-3.87,2.32-7.85,4.32-11.84,6.28a3.56,3.56,0,0,1-.74.26c-.42.1-.79.11-.84-.63,0-.31-.16-.45-.44-.24a5.87,5.87,0,0,1-1.18.68.78.78,0,0,0-.5.8c0,.68-.07,1.36-.11,2A2.6,2.6,0,0,1,58,66.68a15.23,15.23,0,0,0-3.77,4.2,9.09,9.09,0,0,0-1.05,2.68c-.1.37-.06.57.26.66.87.23,1.74.46,2.6.73a1.14,1.14,0,0,1,.66.48,44.39,44.39,0,0,1,2.63,5.1c.4,1.09.8,2.16,1.19,3.26a1.91,1.91,0,0,1,.09.66q0,1.19-.1,2.39c0,.6-.29.88-.77.88-1.66,0-3.33,0-5-.06a2.12,2.12,0,0,1-1.13-.6A7.23,7.23,0,0,0,50,85.55a46.24,46.24,0,0,0-7.77-.27c-.6,0-1.21,0-1.81,0a13.56,13.56,0,0,0-7.78,2.14,2,2,0,0,1-1.09.31c-1.63,0-3.26,0-4.89-.06-.42,0-.6-.22-.59-.76,0-.7,0-1.41,0-2.11a5.71,5.71,0,0,1,.43-2.41c.38-1,.69-2,1.13-3s1-1.87,1.53-2.81c.22-.41.48-.79.67-1.22a1.31,1.31,0,0,1,1.09-.87c.82-.12,1.64-.27,2.5-.42a3,3,0,0,0-.63-1.67,5.56,5.56,0,0,0-3.05-2.09,6.84,6.84,0,0,1-2.24-.82,8.24,8.24,0,0,0-2.63-1.2,30.33,30.33,0,0,1-4.47-1.82Q13.45,63,6.61,59.34C4.67,58.3,2.77,57.14.85,56a7.17,7.17,0,0,1-.85-.7Z"/><path class="cls-1" d="M62.2,51.66a10.28,10.28,0,0,1-3.14-.08C60.11,51.55,61.16,51.22,62.2,51.66Z"/><path class="cls-1" d="M65.47,51.53h-1v-.09h1Z"/></g><rect class="cls-1" x="22.14" y="19.72" width="10.36" height="26.09" transform="translate(-14.15 22.76) rotate(-36.62)"/><rect class="cls-1" x="20.98" y="15.35" width="53.51" height="6.16" transform="translate(-1.57 32.11) rotate(-36.62)"/></g></g></svg>