<svg xmlns="http://www.w3.org/2000/svg" viewBox="0 0 100 150"><defs><style>.cls-1{fill:none;}.cls-2{fill:#292331;}</style></defs><title>sorcerorIcon</title><g id="Layer_2" data-name="Layer 2"><g id="Layer_1-2" data-name="Layer 1"><rect class="cls-1" width="100" height="150"/><path class="cls-2" d="M100,56.86c-.23-3.35-3.27-4.33-5.55-1.85A27.92,27.92,0,0,0,90,61.77c-2.44,5.08-4.61,10.28-6.87,15.45-.86,2-2.16,3.9-4.38,2.75-1-.51-1.57-3.09-1.29-4.53C79.77,64,82.34,52.59,84.72,41.15a31,31,0,0,0,.74-7.43,3.94,3.94,0,0,0-4-4,6.62,6.62,0,0,0-4.39,2.62c-1.15,1.63-1.57,3.83-2.09,5.84-2.33,9-4.51,18-6.93,27-.55,2-1.86,3.9-2.82,5.84l-.86-.32a4.28,4.28,0,0,1-.52-1.39c.06-9.62.16-19.23.25-28.85,0-5.12.3-10.24,0-15.35-.12-2.32-.94-4.91-4-5.25s-4.7,1.68-5.47,4.19A34.41,34.41,0,0,0,53,32.23c-.55,10.86-.79,21.73-1.38,32.59-.08,1.58-1.17,4.24-2.17,4.43-2.61.49-2.64-2.28-3.29-4.07a2.82,2.82,0,0,1-.09-.62c-1.06-9-2.07-18-3.21-27.05-.38-3-.69-6.09-1.83-8.81-.59-1.41-2.85-2.74-4.5-2.94-2.26-.27-3.7,1.62-4.24,3.86a8.9,8.9,0,0,0-.27,2.49c.4,8.35.5,16.73,1.36,25,.79,7.5,1.85,15,.64,22.45-.45,2.78-1.86,5.44-3,8.05-1.31,2.89-3.47,2.91-5.32.72a53.93,53.93,0,0,1-6.51-9c-2.61-4.85-5.07-9.7-10.43-12-2.57-1.13-5.62-2.6-7.81.07S.88,72.57,2.4,75c3,4.86,6,9.74,8.63,14.83,2.16,4.24,3,9.31,5.69,13.1A223.29,223.29,0,0,0,33.48,123.2c4.73,5.21,10.94,7.48,18.08,7a53.63,53.63,0,0,1,8.12-.2c7.67.63,13.68-2.31,18.34-8.19,4-5,6.14-10.9,7.62-17,1.23-5.06,1.75-10.34,3.44-15.22,2.89-8.37,6.57-16.47,9.66-24.79A19.51,19.51,0,0,0,100,56.86ZM54.64,113.92A12.94,12.94,0,1,1,67.59,101,12.94,12.94,0,0,1,54.64,113.92Z"/><path class="cls-2" d="M50.41,101c0,6.46,4.23,11.71,4.23,11.71s4.23-5.24,4.23-11.71-4.23-11.71-4.23-11.71S50.41,94.51,50.41,101Z"/></g></g></svg>