<svg xmlns="http://www.w3.org/2000/svg" viewBox="0 0 100 150"><defs><style>.cls-1{fill:#292331;}.cls-2{fill:none;}</style></defs><title>wizardIcon</title><g id="Layer_2" data-name="Layer 2"><g id="Layer_1-2" data-name="Layer 1"><path class="cls-1" d="M87.19,39.17A298.63,298.63,0,0,1,40.65,51.53c5.63,7.65-.13,15.62-8.76,24.41l-3.21-5,.29-.34,3.26.75-1.91-1.7,1.58-.49,0-.18-1.46-.2,1.88-1.71-.13-.2-2.27.89,1-2-.23-.12-1,.89,1.2-4.94-.27-.07-1.09,2.82,1.16-7.89-.28,0-1.55,2.82A15.3,15.3,0,0,0,27,43.8l-1,2.11.18-3.27-.26-.06-1.48,2.82a6.59,6.59,0,0,1,.49-2.5,3.34,3.34,0,0,0-.2-3.27,8.86,8.86,0,0,1-1-3.77c-.09-3.23.07-6.47.13-9.59l-.7.34c2.3-2,2-4.57,1.62-7.12-.07-.5-.17-1-.27-1.48A20.47,20.47,0,0,0,18.94,7.72l-1.37-.89a9.1,9.1,0,0,1,1.74,5.33c0,1.32.13,2.64.2,4l-.63-.6c-.4,2-.81,4-1.14,5.92-.18,1.06-.2,2.15-.29,3.14l-.47-.4c-.3,1.34-.48,2.65-.89,3.89C15.11,31,14,34,13,36.93c-1.87,5.21-1.86,10.24,1.35,15,0,.07,0,.18,0,.27l-.27.13-3-4.71A16.82,16.82,0,0,0,13,56.8l-.83-.19a17.06,17.06,0,0,0,6.08,7.61l-.86.29,2.66,1.73-3.65.69,6,1.71-.07.44-3.46.36,0,.27,3.76.8v.17l-5,.75a11.58,11.58,0,0,0,6.84,1.63L22.2,74.57l.15.35,3.53-1L25.68,75,27,73.21c.1.09,1.53,2.06,3.24,4.41h0L40.44,92.27,28.05,79.76l0,0C15.87,91.64,1.29,104.26,6.67,116.88l62.66,25.51C30.63,116.68,119.71,66.48,87.19,39.17Z"/><path class="cls-1" d="M77.77,125.75l-15-5.66s-7.06,13.08,6.56,22.31c0,0,9.35,3.72,12-5.13S77.77,125.75,77.77,125.75Z"/><rect class="cls-2" width="100" height="150"/></g></g></svg>